<svg width="258" height="258" viewBox="0 0 258 258" fill="none" xmlns="http://www.w3.org/2000/svg">
<path d="M18.4261 193.15C29.5387 212.397 45.4749 228.417 64.6641 239.631C83.8533 250.844 105.633 256.863 127.857 257.096L128.326 212.331C113.88 212.18 99.7234 208.267 87.2505 200.979C74.7775 193.69 64.419 183.277 57.1958 170.766L18.4261 193.15Z" fill="#36A2EB"/>
<path d="M129.196 257.102C151.421 257.102 173.263 251.311 192.568 240.3C211.874 229.288 227.977 213.436 239.29 194.306L200.757 171.517C193.403 183.952 182.936 194.256 170.388 201.413C157.839 208.571 143.642 212.335 129.196 212.335L129.196 257.102Z" fill="#9E5DF0"/>
<path d="M18.4257 65.2417C7.31308 84.4893 1.40757 106.3 1.2912 128.525C1.17483 150.75 6.85161 172.622 17.7621 191.985L56.764 170.008C49.6722 157.423 45.9823 143.206 46.0579 128.76C46.1336 114.313 49.9722 100.136 57.1954 87.6253L18.4257 65.2417Z" fill="#002F77"/>
<path d="M239.967 193.15C251.079 173.902 256.985 152.091 257.101 129.866C257.218 107.641 251.541 85.7696 240.631 66.4067L201.629 88.3832C208.72 100.969 212.41 115.186 212.335 129.632C212.259 144.078 208.42 158.255 201.197 170.766L239.967 193.15Z" fill="#FF6384"/>
<path d="M129.195 1.28917C106.97 1.28918 85.1279 7.08039 65.8224 18.0921C46.5169 29.1038 30.4138 44.9559 19.1002 64.0861L57.6333 86.8745C64.9872 74.4399 75.4542 64.136 88.0028 56.9784C100.551 49.8208 114.748 46.0565 129.195 46.0565L129.195 1.28917Z" fill="#54D149"/>
<path d="M239.964 65.2418C228.852 45.9942 212.916 29.9743 193.727 18.7611C174.537 7.54786 152.757 1.52824 130.533 1.29549L130.065 46.0604C144.51 46.2117 158.667 50.1244 171.14 57.413C183.613 64.7016 193.972 75.1145 201.195 87.6255L239.964 65.2418Z" fill="#FFCE56"/>
<path d="M80.5371 124.59L73.4004 117.521V114.719H77.5703C79.7988 114.719 81.043 113.885 81.3027 112.285H73.4004V110.918H81.3027C81.0566 109.305 79.7988 108.484 77.5703 108.484H73.4004V105.682H87.7148V107.186H83.0938C84.3516 107.992 85.1172 109.25 85.2812 110.918H87.7148V112.285H85.2949C85.0352 115.443 82.6973 117.453 78.8828 117.453H78.5547L85.9102 124.59H80.5371ZM98.9805 125.342C94.2227 125.342 90.75 121.992 90.75 115.307V115.279C90.75 108.812 93.8809 104.93 99.0215 104.93C102.836 104.93 105.707 107.131 106.295 110.18L106.322 110.316H102.248L102.207 110.193C101.715 109.004 100.621 108.197 99.0078 108.197C96.123 108.197 94.8652 110.945 94.7148 114.432C94.7012 114.705 94.6875 114.979 94.6875 115.184H94.7695C95.5488 113.352 97.4902 112.012 100.156 112.012C103.971 112.012 106.582 114.719 106.582 118.41V118.438C106.582 122.471 103.369 125.342 98.9805 125.342ZM95.3164 118.533C95.3164 120.516 96.9023 122.061 98.9258 122.061C100.936 122.061 102.562 120.529 102.562 118.588V118.561C102.562 116.51 101.018 115.061 98.9668 115.061C96.9023 115.061 95.3164 116.496 95.3164 118.506V118.533ZM117.082 125.342C112.078 125.342 109.043 121.418 109.043 115.143V115.115C109.043 108.84 112.078 104.93 117.082 104.93C122.086 104.93 125.121 108.84 125.121 115.115V115.143C125.121 121.418 122.086 125.342 117.082 125.342ZM117.082 122.033C119.543 122.033 120.951 119.477 120.951 115.143V115.115C120.951 110.781 119.543 108.238 117.082 108.238C114.621 108.238 113.213 110.781 113.213 115.115V115.143C113.213 119.477 114.621 122.033 117.082 122.033ZM126.119 129.115L127.117 121.555H130.891L128.881 129.115H126.119ZM141.117 125.342C136.113 125.342 133.078 121.418 133.078 115.143V115.115C133.078 108.84 136.113 104.93 141.117 104.93C146.121 104.93 149.156 108.84 149.156 115.115V115.143C149.156 121.418 146.121 125.342 141.117 125.342ZM141.117 122.033C143.578 122.033 144.986 119.477 144.986 115.143V115.115C144.986 110.781 143.578 108.238 141.117 108.238C138.656 108.238 137.248 110.781 137.248 115.115V115.143C137.248 119.477 138.656 122.033 141.117 122.033ZM159.492 125.342C154.488 125.342 151.453 121.418 151.453 115.143V115.115C151.453 108.84 154.488 104.93 159.492 104.93C164.496 104.93 167.531 108.84 167.531 115.115V115.143C167.531 121.418 164.496 125.342 159.492 125.342ZM159.492 122.033C161.953 122.033 163.361 119.477 163.361 115.143V115.115C163.361 110.781 161.953 108.238 159.492 108.238C157.031 108.238 155.623 110.781 155.623 115.115V115.143C155.623 119.477 157.031 122.033 159.492 122.033ZM177.867 125.342C172.863 125.342 169.828 121.418 169.828 115.143V115.115C169.828 108.84 172.863 104.93 177.867 104.93C182.871 104.93 185.906 108.84 185.906 115.115V115.143C185.906 121.418 182.871 125.342 177.867 125.342ZM177.867 122.033C180.328 122.033 181.736 119.477 181.736 115.143V115.115C181.736 110.781 180.328 108.238 177.867 108.238C175.406 108.238 173.998 110.781 173.998 115.115V115.143C173.998 119.477 175.406 122.033 177.867 122.033Z" fill="#0D0D0D"/>
<path d="M96.3359 153.22V143.454H92.8828V141.946H101.531V143.454H98.0859V153.22H96.3359ZM104.273 153.384C101.914 153.384 100.375 151.751 100.375 149.11V149.095C100.375 146.47 101.93 144.845 104.266 144.845C106.609 144.845 108.172 146.462 108.172 149.095V149.11C108.172 151.759 106.625 153.384 104.273 153.384ZM104.281 151.97C105.602 151.97 106.445 150.923 106.445 149.11V149.095C106.445 147.298 105.586 146.259 104.266 146.259C102.969 146.259 102.102 147.298 102.102 149.095V149.11C102.102 150.931 102.961 151.97 104.281 151.97ZM112.359 153.384C110.734 153.384 109.953 152.696 109.953 151.056V146.345H108.773V145.001H109.953V142.86H111.68V145.001H113.219V146.345H111.68V150.954C111.68 151.79 112.055 152.04 112.766 152.04C112.945 152.04 113.094 152.024 113.219 152.009V153.313C113.023 153.345 112.703 153.384 112.359 153.384ZM116.906 153.368C115.266 153.368 114.164 152.36 114.164 150.884V150.868C114.164 149.438 115.273 148.563 117.219 148.446L119.453 148.313V147.696C119.453 146.79 118.867 146.243 117.82 146.243C116.844 146.243 116.242 146.704 116.102 147.36L116.086 147.431H114.492L114.5 147.345C114.617 145.931 115.844 144.845 117.867 144.845C119.875 144.845 121.148 145.907 121.148 147.556V153.22H119.453V151.923H119.422C118.945 152.806 117.992 153.368 116.906 153.368ZM115.867 150.845C115.867 151.563 116.461 152.017 117.367 152.017C118.555 152.017 119.453 151.212 119.453 150.142V149.501L117.445 149.626C116.43 149.688 115.867 150.134 115.867 150.829V150.845ZM122.852 153.22V141.946H124.539V153.22H122.852ZM133.57 153.407C131.039 153.407 129.367 152.204 129.227 150.22L129.219 150.103H130.922L130.938 150.204C131.094 151.243 132.133 151.892 133.641 151.892C135.148 151.892 136.102 151.212 136.102 150.157V150.149C136.102 149.243 135.484 148.751 133.992 148.423L132.766 148.165C130.555 147.696 129.484 146.681 129.484 145.009V145.001C129.492 143.079 131.188 141.759 133.57 141.759C135.922 141.759 137.531 143.04 137.648 144.931L137.656 145.063H135.953L135.945 144.954C135.789 143.907 134.883 143.274 133.547 143.274C132.148 143.282 131.258 143.946 131.258 144.931V144.938C131.258 145.782 131.898 146.298 133.305 146.603L134.539 146.86C136.867 147.353 137.867 148.298 137.867 150.04V150.048C137.867 152.103 136.242 153.407 133.57 153.407ZM141.656 153.368C140.016 153.368 138.914 152.36 138.914 150.884V150.868C138.914 149.438 140.023 148.563 141.969 148.446L144.203 148.313V147.696C144.203 146.79 143.617 146.243 142.57 146.243C141.594 146.243 140.992 146.704 140.852 147.36L140.836 147.431H139.242L139.25 147.345C139.367 145.931 140.594 144.845 142.617 144.845C144.625 144.845 145.898 145.907 145.898 147.556V153.22H144.203V151.923H144.172C143.695 152.806 142.742 153.368 141.656 153.368ZM140.617 150.845C140.617 151.563 141.211 152.017 142.117 152.017C143.305 152.017 144.203 151.212 144.203 150.142V149.501L142.195 149.626C141.18 149.688 140.617 150.134 140.617 150.829V150.845ZM147.602 153.22V141.946H149.289V153.22H147.602ZM154.531 153.384C152.117 153.384 150.656 151.735 150.656 149.142V149.134C150.656 146.563 152.141 144.845 154.445 144.845C156.75 144.845 158.164 146.501 158.164 148.97V149.54H152.344C152.375 151.095 153.227 152.001 154.57 152.001C155.57 152.001 156.234 151.485 156.445 150.868L156.469 150.806H158.07L158.055 150.892C157.789 152.196 156.523 153.384 154.531 153.384ZM154.453 146.228C153.359 146.228 152.516 146.97 152.367 148.345H156.492C156.352 146.923 155.555 146.228 154.453 146.228ZM162.555 153.384C160.5 153.384 159.297 152.368 159.125 150.868L159.117 150.798H160.789L160.805 150.876C160.961 151.634 161.523 152.079 162.562 152.079C163.578 152.079 164.188 151.657 164.188 150.993V150.985C164.188 150.454 163.891 150.149 163.008 149.938L161.664 149.634C160.102 149.274 159.328 148.524 159.328 147.329V147.321C159.328 145.853 160.609 144.845 162.5 144.845C164.445 144.845 165.617 145.931 165.703 147.329L165.711 147.423H164.125L164.117 147.368C164.016 146.649 163.453 146.149 162.5 146.149C161.594 146.149 161.023 146.579 161.023 147.235V147.243C161.023 147.751 161.359 148.095 162.242 148.306L163.578 148.61C165.258 149.001 165.898 149.665 165.898 150.845V150.853C165.898 152.353 164.492 153.384 162.555 153.384Z" fill="#666666"/>
</svg>
