<svg width="50" height="50" viewBox="0 0 50 50" fill="none" xmlns="http://www.w3.org/2000/svg">
<rect width="50" height="50" rx="25" fill="#272727"/>
<path d="M14.6795 34.3533H14.6291C13.12 34.3455 11.6361 33.9656 10.3089 33.2473C8.98166 32.529 7.85207 31.4945 7.02018 30.2353C6.18828 28.9762 5.67975 27.5313 5.53964 26.0287C5.39953 24.5261 5.63215 23.0121 6.21691 21.6209C6.80166 20.2297 7.7205 19.0041 8.89204 18.0528C10.0636 17.1015 11.4516 16.4539 12.9333 16.1671C14.4149 15.8804 15.9444 15.9635 17.3862 16.4091C18.8281 16.8547 20.1378 17.649 21.1993 18.7217L22.768 20.3048L19.9718 23.0746L18.4031 21.4915C17.6655 20.7466 16.7215 20.24 15.693 20.0371C14.6646 19.8342 13.5989 19.9443 12.6337 20.3532C11.6685 20.7621 10.848 21.451 10.2783 22.3309C9.70858 23.2109 9.4158 24.2415 9.43775 25.2895C9.46176 26.3131 9.78502 27.3072 10.3676 28.1492C10.9502 28.9911 11.7666 29.644 12.716 30.0273C13.6654 30.4105 14.7063 30.5073 15.7101 30.3058C16.714 30.1042 17.6368 29.613 18.3646 28.8929L25.7925 21.554L28.5455 24.367L26.2537 26.63L21.1321 31.6988C20.2837 32.5436 19.2772 33.2128 18.17 33.6683C17.0628 34.1238 15.8767 34.3566 14.6795 34.3533Z" fill="white"/>
<path d="M35.0851 34.4518C33.8722 34.4534 32.671 34.2141 31.5514 33.7477C30.4317 33.2813 29.4159 32.5971 28.5629 31.7348L27.0182 30.1758L29.8145 27.4083L31.3591 28.9674C31.8392 29.4745 32.4158 29.8805 33.0549 30.1616C33.6941 30.4428 34.383 30.5934 35.0811 30.6046C35.7793 30.6158 36.4727 30.4875 37.1206 30.227C37.7684 29.9666 38.3578 29.5793 38.8539 29.088C39.35 28.5966 39.743 28.0111 40.0097 27.3658C40.2765 26.7205 40.4116 26.0284 40.4071 25.3302C40.4027 24.6319 40.2588 23.9416 39.9839 23.2997C39.709 22.6579 39.3086 22.0774 38.8062 21.5924C38.3075 21.0821 37.7085 20.6806 37.047 20.4131C36.3855 20.1456 35.6758 20.0179 34.9626 20.0381C33.6224 20.0675 32.3446 20.61 31.3928 21.554L24.1547 28.7032L21.3993 25.9093L23.5085 23.8337L28.6301 18.7673C29.7009 17.7073 31.0163 16.9272 32.4601 16.4962C33.9039 16.0652 35.4316 15.9964 36.9083 16.2959C38.385 16.5954 39.7652 17.254 40.9269 18.2135C42.0886 19.173 42.9962 20.4039 43.5693 21.7974C44.1424 23.1909 44.3635 24.7041 44.2131 26.2033C44.0626 27.7025 43.5452 29.1416 42.7066 30.3934C41.8679 31.6452 40.7339 32.6712 39.4046 33.3807C38.0754 34.0902 36.5918 34.4614 35.0851 34.4614V34.4518Z" fill="white"/>
</svg>
