<svg width="60" height="60" viewBox="0 0 60 60" fill="none" xmlns="http://www.w3.org/2000/svg">
<rect width="60" height="60" rx="16" fill="#36A2EB" fill-opacity="0.1"/>
<mask id="mask0_1_17627" style="mask-type:alpha" maskUnits="userSpaceOnUse" x="12" y="12" width="36" height="36">
<rect x="12.8594" y="12.8574" width="34.2857" height="34.2857" fill="#E43232"/>
</mask>
<g mask="url(#mask0_1_17627)">
<path d="M31.0725 29.5662V23.9287C31.0725 23.6251 30.9698 23.3706 30.7643 23.1651C30.5589 22.9599 30.3043 22.8573 30.0008 22.8573C29.6969 22.8573 29.4425 22.9599 29.2375 23.1651C29.0323 23.3706 28.9297 23.6251 28.9297 23.9287V29.8959C28.9297 30.0639 28.9609 30.2268 29.0233 30.3844C29.0854 30.542 29.1834 30.6878 29.3172 30.8216L34.21 35.7144C34.4077 35.9123 34.6562 36.0135 34.9558 36.018C35.2553 36.0225 35.5085 35.9213 35.7154 35.7144C35.9223 35.5075 36.0258 35.2566 36.0258 34.9616C36.0258 34.6668 35.9223 34.416 35.7154 34.2091L31.0725 29.5662ZM30.0036 43.5716C28.1265 43.5716 26.3621 43.2154 24.7104 42.503C23.0587 41.7906 21.6221 40.8238 20.4004 39.6026C19.1787 38.3814 18.2115 36.9454 17.4986 35.2944C16.786 33.6435 16.4297 31.8795 16.4297 30.0026C16.4297 28.1255 16.7859 26.3611 17.4983 24.7094C18.2106 23.0578 19.1774 21.6211 20.3986 20.3994C21.6198 19.1778 23.0559 18.2105 24.7068 17.4976C26.3578 16.785 28.1217 16.4287 29.9986 16.4287C31.8758 16.4287 33.6402 16.7849 35.2918 17.4973C36.9435 18.2097 38.3802 19.1764 39.6018 20.3976C40.8235 21.6188 41.7908 23.0549 42.5036 24.7059C43.2162 26.3568 43.5725 28.1207 43.5725 29.9976C43.5725 31.8748 43.2164 33.6392 42.504 35.2909C41.7916 36.9425 40.8248 38.3792 39.6036 39.6009C38.3824 40.8225 36.9464 41.7898 35.2954 42.5026C33.6444 43.2153 31.8805 43.5716 30.0036 43.5716Z" fill="#36A2EB"/>
</g>
</svg>
