<svg width="60" height="60" viewBox="0 0 60 60" fill="none" xmlns="http://www.w3.org/2000/svg">
<rect width="60" height="60" rx="16" fill="#04A349" fill-opacity="0.1"/>
<mask id="mask0_1_17657" style="mask-type:alpha" maskUnits="userSpaceOnUse" x="12" y="12" width="36" height="36">
<rect x="12.8594" y="12.8574" width="34.2857" height="34.2857" fill="#D9D9D9"/>
</mask>
<g mask="url(#mask0_1_17657)">
<path d="M27.9736 33.0662L24.655 29.7473C24.4572 29.5497 24.2085 29.4485 23.909 29.4437C23.6097 29.4392 23.3565 29.5404 23.1493 29.7473C22.9424 29.9544 22.839 30.2054 22.839 30.5001C22.839 30.7949 22.9424 31.0459 23.1493 31.253L27.0697 35.1734C27.328 35.4314 27.6293 35.5605 27.9736 35.5605C28.3179 35.5605 28.6192 35.4314 28.8775 35.1734L36.8254 27.2255C37.023 27.0276 37.1242 26.7789 37.129 26.4794C37.1335 26.1801 37.0323 25.9269 36.8254 25.7198C36.6183 25.5129 36.3673 25.4094 36.0725 25.4094C35.7778 25.4094 35.5268 25.5129 35.3197 25.7198L27.9736 33.0662ZM30.0036 43.5716C28.1265 43.5716 26.3621 43.2154 24.7104 42.503C23.0587 41.7906 21.6221 40.8238 20.4004 39.6026C19.1787 38.3814 18.2115 36.9454 17.4986 35.2944C16.786 33.6435 16.4297 31.8795 16.4297 30.0026C16.4297 28.1255 16.7859 26.3611 17.4983 24.7094C18.2106 23.0578 19.1774 21.6211 20.3986 20.3994C21.6198 19.1778 23.0559 18.2105 24.7068 17.4976C26.3578 16.785 28.1217 16.4287 29.9986 16.4287C31.8758 16.4287 33.6402 16.7849 35.2918 17.4973C36.9435 18.2097 38.3802 19.1764 39.6018 20.3976C40.8235 21.6188 41.7908 23.0549 42.5036 24.7059C43.2162 26.3568 43.5725 28.1207 43.5725 29.9976C43.5725 31.8748 43.2164 33.6392 42.504 35.2909C41.7916 36.9425 40.8248 38.3792 39.6036 39.6009C38.3824 40.8225 36.9464 41.7898 35.2954 42.5026C33.6444 43.2153 31.8805 43.5716 30.0036 43.5716Z" fill="#04A349"/>
</g>
</svg>
