<svg width="60" height="60" viewBox="0 0 60 60" fill="none" xmlns="http://www.w3.org/2000/svg">
<rect width="60" height="60" rx="16" fill="#E43232" fill-opacity="0.1"/>
<mask id="mask0_1_17670" style="mask-type:alpha" maskUnits="userSpaceOnUse" x="12" y="12" width="36" height="36">
<rect x="12.8594" y="12.8574" width="34.2857" height="34.2857" fill="#D9D9D9"/>
</mask>
<g mask="url(#mask0_1_17670)">
<path d="M30.0011 31.5055L34.3911 35.8959C34.589 36.0935 34.8377 36.1947 35.1372 36.1994C35.4365 36.2039 35.6897 36.1028 35.8968 35.8959C36.1037 35.6887 36.2072 35.4378 36.2072 35.143C36.2072 34.8482 36.1037 34.5973 35.8968 34.3901L31.5065 30.0001L35.8968 25.6101C36.0944 25.4123 36.1956 25.1636 36.2004 24.8641C36.2049 24.5648 36.1037 24.3116 35.8968 24.1044C35.6897 23.8975 35.4387 23.7941 35.144 23.7941C34.8492 23.7941 34.5983 23.8975 34.3911 24.1044L30.0011 28.4948L25.6111 24.1044C25.4133 23.9068 25.1646 23.8056 24.865 23.8009C24.5658 23.7963 24.3125 23.8975 24.1054 24.1044C23.8985 24.3116 23.795 24.5625 23.795 24.8573C23.795 25.152 23.8985 25.403 24.1054 25.6101L28.4958 30.0001L24.1054 34.3901C23.9078 34.588 23.8066 34.8367 23.8018 35.1362C23.7973 35.4355 23.8985 35.6887 24.1054 35.8959C24.3125 36.1028 24.5635 36.2062 24.8583 36.2062C25.153 36.2062 25.404 36.1028 25.6111 35.8959L30.0011 31.5055ZM30.0036 43.5716C28.1265 43.5716 26.3621 43.2154 24.7104 42.503C23.0587 41.7906 21.6221 40.8238 20.4004 39.6026C19.1787 38.3814 18.2115 36.9454 17.4986 35.2944C16.786 33.6435 16.4297 31.8795 16.4297 30.0026C16.4297 28.1255 16.7859 26.3611 17.4983 24.7094C18.2106 23.0578 19.1774 21.6211 20.3986 20.3994C21.6198 19.1778 23.0559 18.2105 24.7068 17.4976C26.3578 16.785 28.1217 16.4287 29.9986 16.4287C31.8758 16.4287 33.6402 16.7849 35.2918 17.4973C36.9435 18.2097 38.3802 19.1764 39.6018 20.3976C40.8235 21.6188 41.7908 23.0549 42.5036 24.7059C43.2162 26.3568 43.5725 28.1207 43.5725 29.9976C43.5725 31.8748 43.2164 33.6392 42.504 35.2909C41.7916 36.9425 40.8248 38.3792 39.6036 39.6009C38.3824 40.8225 36.9464 41.7898 35.2954 42.5026C33.6444 43.2153 31.8805 43.5716 30.0036 43.5716Z" fill="#E43232"/>
</g>
</svg>
