<svg width="17" height="17" viewBox="0 0 17 17" fill="none" xmlns="http://www.w3.org/2000/svg">
<path d="M7.5625 9.4375H1.3125C1.04688 9.4375 0.824271 9.3476 0.644688 9.16781C0.464896 8.98802 0.375 8.76531 0.375 8.49969C0.375 8.23385 0.464896 8.01125 0.644688 7.83187C0.824271 7.65229 1.04688 7.5625 1.3125 7.5625H7.5625V1.3125C7.5625 1.04688 7.6524 0.824271 7.83219 0.644688C8.01198 0.464896 8.23469 0.375 8.50031 0.375C8.76615 0.375 8.98875 0.464896 9.16813 0.644688C9.34771 0.824271 9.4375 1.04688 9.4375 1.3125V7.5625H15.6875C15.9531 7.5625 16.1757 7.6524 16.3553 7.83219C16.5351 8.01198 16.625 8.23469 16.625 8.50031C16.625 8.76615 16.5351 8.98875 16.3553 9.16813C16.1757 9.34771 15.9531 9.4375 15.6875 9.4375H9.4375V15.6875C9.4375 15.9531 9.3476 16.1757 9.16781 16.3553C8.98802 16.5351 8.76531 16.625 8.49969 16.625C8.23385 16.625 8.01125 16.5351 7.83187 16.3553C7.65229 16.1757 7.5625 15.9531 7.5625 15.6875V9.4375Z" fill="#165DC9"/>
</svg>
