<svg width="21" height="20" viewBox="0 0 21 20" fill="none" xmlns="http://www.w3.org/2000/svg">
<g id="attach_file">
<mask id="mask0_1_11675" style="mask-type:alpha" maskUnits="userSpaceOnUse" x="0" y="0" width="21" height="20">
<rect id="Bounding box" x="0.5" width="20" height="20" fill="#D9D9D9"/>
</mask>
<g mask="url(#mask0_1_11675)">
<path id="attach_file_2" d="M12.338 17.3262C11.0723 18.5919 9.55491 19.2285 7.78577 19.2362C6.0166 19.2438 4.5003 18.6159 3.23688 17.3525C1.97344 16.089 1.34429 14.5715 1.34943 12.7998C1.35458 11.0282 1.98997 9.50954 3.25562 8.24389L10.2622 1.23727C11.1615 0.338035 12.2381 -0.114084 13.492 -0.119085C14.7459 -0.124085 15.8225 0.323032 16.7218 1.22227C17.621 2.12152 18.0681 3.19811 18.0631 4.45206C18.0581 5.706 17.606 6.78259 16.7068 7.68183L10.0749 14.3138C9.54731 14.8413 8.9132 15.1079 8.17252 15.1136C7.43187 15.1193 6.79741 14.8581 6.26914 14.3298C5.74088 13.8015 5.47547 13.1655 5.47288 12.4218C5.47028 11.678 5.73535 11.0397 6.26809 10.507L13.1098 3.66525L14.2788 4.83425L7.43709 11.676C7.22826 11.8848 7.12259 12.1309 7.12007 12.4141C7.11758 12.6974 7.22074 12.9434 7.42957 13.1523C7.63841 13.3611 7.88445 13.4643 8.16771 13.4618C8.45099 13.4592 8.69704 13.3536 8.90587 13.1448L15.5453 6.50535C16.1128 5.92184 16.4003 5.23461 16.4077 4.44368C16.4151 3.65275 16.1301 2.96861 15.5528 2.39127C14.9779 1.81636 14.2911 1.53125 13.4925 1.53594C12.6938 1.54062 12.0067 1.83073 11.4312 2.40625L4.4246 9.41288C3.47441 10.3471 2.9988 11.4741 2.99779 12.7941C2.9968 14.114 3.46707 15.2447 4.40859 16.1862C5.33685 17.1144 6.4561 17.5732 7.76632 17.5626C9.07656 17.5519 10.2108 17.0835 11.169 16.1572L18.3854 8.94082L19.5544 10.1098L12.338 17.3262Z" fill="#165DC9"/>
</g>
</g>
</svg>
