<svg width="16" height="16" viewBox="0 0 16 16" fill="none" xmlns="http://www.w3.org/2000/svg">
<g id="cancel">
<rect id="Bounding box" x="1" y="1" width="14" height="14" rx="7" fill="white"/>
<path id="cancel_2" d="M4.99967 11.8778L7.99967 8.8778L10.9997 11.8778L11.8778 10.9997L8.8778 7.99967L11.8778 4.99967L10.9997 4.12155L7.99967 7.12155L4.99967 4.12155L4.12155 4.99967L7.12155 7.99967L4.12155 10.9997L4.99967 11.8778ZM8.00113 15.9163C6.90613 15.9163 5.8769 15.7086 4.91342 15.293C3.94995 14.8775 3.1119 14.3135 2.39926 13.6011C1.68662 12.8888 1.12238 12.0511 0.706549 11.088C0.290855 10.125 0.0830078 9.09599 0.0830078 8.00113C0.0830078 6.90613 0.290786 5.8769 0.706341 4.91342C1.1219 3.94995 1.68586 3.1119 2.39822 2.39926C3.11058 1.68662 3.94829 1.12238 4.91134 0.706549C5.8744 0.290855 6.90335 0.0830078 7.99822 0.0830078C9.09322 0.0830078 10.1225 0.290785 11.0859 0.706341C12.0494 1.1219 12.8875 1.68586 13.6001 2.39822C14.3127 3.11058 14.877 3.94829 15.2928 4.91134C15.7085 5.8744 15.9163 6.90335 15.9163 7.99822C15.9163 9.09322 15.7086 10.1225 15.293 11.0859C14.8775 12.0494 14.3135 12.8875 13.6011 13.6001C12.8888 14.3127 12.0511 14.877 11.088 15.2928C10.125 15.7085 9.09599 15.9163 8.00113 15.9163Z" fill="#272727"/>
</g>
</svg>
