<svg width="24" height="24" viewBox="0 0 24 24" fill="none" xmlns="http://www.w3.org/2000/svg">
<path d="M16.2265 19.9483C14.9256 20.6413 13.4739 21.0025 11.9999 21C7.02935 21 2.99992 16.9706 2.99992 12C2.99992 7.02944 7.02935 3.00001 11.9999 3.00001C16.9705 3.00001 20.9999 7.02944 20.9999 12C20.9999 13.53 20.6185 14.9692 19.9465 16.2292C19.7897 16.5227 19.7528 16.8656 19.8436 17.1857L20.9013 20.9032L17.1831 19.8463C16.863 19.7552 16.5201 19.7918 16.2265 19.9483ZM11.9999 22.2857C13.685 22.2881 15.3446 21.8748 16.8316 21.0823L20.9202 22.2454C21.1037 22.2976 21.2979 22.2998 21.4825 22.2518C21.6672 22.2038 21.8357 22.1073 21.9706 21.9724C22.1055 21.8375 22.202 21.669 22.25 21.4843C22.298 21.2997 22.2958 21.1055 22.2436 20.922L21.0813 16.8334C21.8744 15.3459 22.288 13.6857 22.2856 12C22.2856 6.31972 17.6802 1.71429 11.9999 1.71429C6.31964 1.71429 1.71421 6.31972 1.71421 12C1.71421 17.6803 6.31964 22.2857 11.9999 22.2857ZM15.8571 10.0714C15.8571 9.90094 15.7893 9.73743 15.6688 9.61687C15.5482 9.49631 15.3847 9.42858 15.2142 9.42858H8.78563C8.61514 9.42858 8.45163 9.49631 8.33107 9.61687C8.21051 9.73743 8.14278 9.90094 8.14278 10.0714C8.14278 10.2419 8.21051 10.4054 8.33107 10.526C8.45163 10.6466 8.61514 10.7143 8.78563 10.7143H15.2142C15.3847 10.7143 15.5482 10.6466 15.6688 10.526C15.7893 10.4054 15.8571 10.2419 15.8571 10.0714ZM15.8571 13.9286C15.8571 13.7581 15.7893 13.5946 15.6688 13.474C15.5482 13.3535 15.3847 13.2857 15.2142 13.2857H11.3571C11.1866 13.2857 11.0231 13.3535 10.9025 13.474C10.7819 13.5946 10.7142 13.7581 10.7142 13.9286C10.7142 14.0991 10.7819 14.2626 10.9025 14.3832C11.0231 14.5037 11.1866 14.5714 11.3571 14.5714H15.2142C15.3847 14.5714 15.5482 14.5037 15.6688 14.3832C15.7893 14.2626 15.8571 14.0991 15.8571 13.9286Z" fill="white"/>
</svg>
