<svg width="56" height="40" viewBox="0 0 56 40" fill="none" xmlns="http://www.w3.org/2000/svg">
<path d="M14.25 40C10.4583 40 7.21875 38.6875 4.53125 36.0625C1.84375 33.4375 0.5 30.2292 0.5 26.4375C0.5 23.1875 1.47917 20.2917 3.4375 17.75C5.39583 15.2083 7.95833 13.5833 11.125 12.875C12.1667 9.04167 14.25 5.9375 17.375 3.5625C20.5 1.1875 24.0417 0 28 0C32.875 0 37.0104 1.69792 40.4062 5.09375C43.8021 8.48958 45.5 12.625 45.5 17.5C48.375 17.8333 50.7604 19.0729 52.6563 21.2188C54.5521 23.3646 55.5 25.875 55.5 28.75C55.5 31.875 54.4062 34.5312 52.2188 36.7188C50.0312 38.9062 47.375 40 44.25 40H30.5C29.125 40 27.9479 39.5104 26.9688 38.5312C25.9896 37.5521 25.5 36.375 25.5 35V22.125L21.5 26L18 22.5L28 12.5L38 22.5L34.5 26L30.5 22.125V35H44.25C46 35 47.4792 34.3958 48.6875 33.1875C49.8958 31.9792 50.5 30.5 50.5 28.75C50.5 27 49.8958 25.5208 48.6875 24.3125C47.4792 23.1042 46 22.5 44.25 22.5H40.5V17.5C40.5 14.0417 39.2812 11.0938 36.8438 8.65625C34.4062 6.21875 31.4583 5 28 5C24.5417 5 21.5938 6.21875 19.1562 8.65625C16.7188 11.0938 15.5 14.0417 15.5 17.5H14.25C11.8333 17.5 9.77083 18.3542 8.0625 20.0625C6.35417 21.7708 5.5 23.8333 5.5 26.25C5.5 28.6667 6.35417 30.7292 8.0625 32.4375C9.77083 34.1458 11.8333 35 14.25 35H20.5V40H14.25Z" fill="#165DC9"/>
</svg>
