<svg width="24" height="25" viewBox="0 0 24 25" fill="none" xmlns="http://www.w3.org/2000/svg">
<mask id="mask0_1_13045" style="mask-type:alpha" maskUnits="userSpaceOnUse" x="0" y="0" width="24" height="25">
<rect y="0.5" width="24" height="24" fill="#D9D9D9"/>
</mask>
<g mask="url(#mask0_1_13045)">
<path d="M7.80775 20.8845C7.31058 20.8845 6.885 20.7075 6.531 20.3535C6.177 19.9995 6 19.5739 6 19.0768V6.3845H5.75C5.5375 6.3845 5.35942 6.31258 5.21575 6.16875C5.07192 6.02492 5 5.84675 5 5.63425C5 5.42158 5.07192 5.2435 5.21575 5.1C5.35942 4.95633 5.5375 4.8845 5.75 4.8845H9.5C9.5 4.63967 9.58625 4.431 9.75875 4.2585C9.93108 4.08617 10.1397 4 10.3845 4H14.6155C14.8603 4 15.0689 4.08617 15.2413 4.2585C15.4138 4.431 15.5 4.63967 15.5 4.8845H19.25C19.4625 4.8845 19.6406 4.95642 19.7843 5.10025C19.9281 5.24408 20 5.42225 20 5.63475C20 5.84742 19.9281 6.0255 19.7843 6.169C19.6406 6.31267 19.4625 6.3845 19.25 6.3845H19V19.0768C19 19.5739 18.823 19.9995 18.469 20.3535C18.115 20.7075 17.6894 20.8845 17.1923 20.8845H7.80775ZM17.5 6.3845H7.5V19.0768C7.5 19.1666 7.52883 19.2403 7.5865 19.298C7.64417 19.3557 7.71792 19.3845 7.80775 19.3845H17.1923C17.2821 19.3845 17.3558 19.3557 17.4135 19.298C17.4712 19.2403 17.5 19.1666 17.5 19.0768V6.3845ZM10.6543 17.3845C10.8668 17.3845 11.0448 17.3127 11.1885 17.169C11.332 17.0252 11.4037 16.847 11.4037 16.6345V9.1345C11.4037 8.922 11.3318 8.74383 11.188 8.6C11.0443 8.45633 10.8662 8.3845 10.6535 8.3845C10.441 8.3845 10.2629 8.45633 10.1192 8.6C9.97575 8.74383 9.904 8.922 9.904 9.1345V16.6345C9.904 16.847 9.97583 17.0252 10.1195 17.169C10.2633 17.3127 10.4416 17.3845 10.6543 17.3845ZM14.3465 17.3845C14.559 17.3845 14.7371 17.3127 14.8807 17.169C15.0243 17.0252 15.096 16.847 15.096 16.6345V9.1345C15.096 8.922 15.0242 8.74383 14.8805 8.6C14.7367 8.45633 14.5584 8.3845 14.3458 8.3845C14.1333 8.3845 13.9552 8.45633 13.8115 8.6C13.668 8.74383 13.5962 8.922 13.5962 9.1345V16.6345C13.5962 16.847 13.6682 17.0252 13.812 17.169C13.9557 17.3127 14.1338 17.3845 14.3465 17.3845Z" fill="#0D0D0D"/>
</g>
</svg>
