<svg width="17" height="20" viewBox="0 0 17 20" fill="none" xmlns="http://www.w3.org/2000/svg">
<path d="M7.99825 19.6923C7.50075 19.6923 7.07542 19.5153 6.72225 19.1613C6.36892 18.8073 6.19225 18.3817 6.19225 17.8845H9.80775C9.80775 18.3833 9.63058 18.8093 9.27625 19.1625C8.92192 19.5157 8.49592 19.6923 7.99825 19.6923ZM14.75 16.8845H1.25C1.0375 16.8845 0.859417 16.8127 0.71575 16.669C0.571917 16.5252 0.5 16.3469 0.5 16.1343C0.5 15.9218 0.571917 15.7437 0.71575 15.6C0.859417 15.4565 1.0375 15.3848 1.25 15.3848H2.30775V7.923C2.30775 6.57817 2.72283 5.38908 3.553 4.35575C4.383 3.32242 5.44867 2.6615 6.75 2.373V1.75C6.75 1.40283 6.87142 1.10767 7.11425 0.8645C7.35708 0.6215 7.65192 0.5 7.99875 0.5C8.34575 0.5 8.641 0.6215 8.8845 0.8645C9.12817 1.10767 9.25 1.40283 9.25 1.75V2.373C9.27567 2.3795 9.30133 2.38592 9.327 2.39225C9.3525 2.39875 9.37808 2.40517 9.40375 2.4115C9.66658 2.49483 9.81692 2.67658 9.85475 2.95675C9.89258 3.23692 9.80317 3.48533 9.5865 3.702L6.46525 6.798C6.29958 6.96283 6.16783 7.15758 6.07 7.38225C5.972 7.60692 5.923 7.83908 5.923 8.07875V11.2693C5.923 11.7664 6.1 12.192 6.454 12.546C6.808 12.9 7.23358 13.077 7.73075 13.077H10.9212C11.1611 13.077 11.3935 13.0302 11.6185 12.9365C11.8433 12.843 12.0378 12.7142 12.202 12.55L12.5423 12.2095C12.7564 11.9955 13.0016 11.9455 13.2778 12.0595C13.5541 12.1735 13.6923 12.3825 13.6923 12.6865V15.3848H14.75C14.9625 15.3848 15.1406 15.4566 15.2843 15.6003C15.4281 15.7441 15.5 15.9223 15.5 16.135C15.5 16.3475 15.4281 16.5256 15.2843 16.6693C15.1406 16.8128 14.9625 16.8845 14.75 16.8845ZM8.1155 9.98075V8.61925C8.1155 8.49875 8.13725 8.38142 8.18075 8.26725C8.22442 8.15325 8.293 8.05458 8.3865 7.97125L13.5443 2.8385C13.6584 2.73083 13.7872 2.6475 13.9305 2.5885C14.074 2.5295 14.224 2.5 14.3805 2.5C14.537 2.5 14.6921 2.53275 14.8458 2.59825C14.9994 2.66375 15.1297 2.749 15.2365 2.854L16.1615 3.7885C16.2692 3.91283 16.3525 4.04417 16.4115 4.1825C16.4705 4.32083 16.5 4.469 16.5 4.627C16.5 4.78517 16.4705 4.94008 16.4115 5.09175C16.3525 5.24342 16.2692 5.37308 16.1615 5.48075L11.0288 10.6135C10.9353 10.707 10.8333 10.7756 10.723 10.8193C10.6125 10.8628 10.4984 10.8845 10.3807 10.8845H9.01925C8.76308 10.8845 8.54842 10.7979 8.37525 10.6248C8.20208 10.4516 8.1155 10.2369 8.1155 9.98075ZM14.3828 5.59225L15.3077 4.627L14.3828 3.69225L13.4327 4.64225L14.3828 5.59225Z" fill="#165DC9"/>
</svg>
