<svg width="12" height="8" viewBox="0 0 12 8" fill="none" xmlns="http://www.w3.org/2000/svg">
<path d="M6.0231 7.01038C5.90258 7.01038 5.79041 6.99115 5.68657 6.95268C5.58272 6.91422 5.48401 6.84819 5.39042 6.75461L0.896199 2.26038C0.757732 2.12193 0.686899 1.9479 0.683699 1.73828C0.680482 1.52867 0.751315 1.35142 0.896199 1.20656C1.04107 1.06169 1.2167 0.989258 1.4231 0.989258C1.6295 0.989258 1.80513 1.06169 1.95 1.20656L6.0231 5.27966L10.0962 1.20656C10.2346 1.06811 10.4087 0.997273 10.6183 0.994057C10.8279 0.990857 11.0051 1.06169 11.15 1.20656C11.2949 1.35142 11.3673 1.52707 11.3673 1.73348C11.3673 1.93988 11.2949 2.11552 11.15 2.26038L6.65577 6.75461C6.56219 6.84819 6.46347 6.91422 6.35962 6.95268C6.25579 6.99115 6.14361 7.01038 6.0231 7.01038Z" fill="#272727"/>
</svg>
