<svg width="24" height="24" viewBox="0 0 24 24" fill="none" xmlns="http://www.w3.org/2000/svg">
<g id="Icons">
<mask id="mask0_145_22064" style="mask-type:alpha" maskUnits="userSpaceOnUse" x="0" y="0" width="24" height="24">
<rect id="Bounding box" width="24" height="24" fill="#D9D9D9"/>
</mask>
<g mask="url(#mask0_145_22064)">
<path id="home" d="M5.99997 18.9423H9.34615V13.9038C9.34615 13.6477 9.43277 13.4331 9.606 13.2598C9.77923 13.0866 9.9939 13 10.25 13H13.75C14.0061 13 14.2207 13.0866 14.3939 13.2598C14.5672 13.4331 14.6538 13.6477 14.6538 13.9038V18.9423H18V10.0961C18 10.0448 17.9888 9.99837 17.9663 9.9567C17.9439 9.91503 17.9134 9.87817 17.875 9.84612L12.1827 5.56727C12.1314 5.52241 12.0705 5.49997 12 5.49997C11.9295 5.49997 11.8686 5.52241 11.8173 5.56727L6.12497 9.84612C6.08652 9.87817 6.05607 9.91503 6.03362 9.9567C6.01119 9.99837 5.99997 10.0448 5.99997 10.0961V18.9423ZM4.5 18.9423V10.0961C4.5 9.80991 4.56402 9.53876 4.69207 9.28268C4.82012 9.02659 4.99712 8.8157 5.22307 8.65L10.9154 4.36155C11.2313 4.12052 11.5923 4 11.9984 4C12.4046 4 12.7666 4.12052 13.0846 4.36155L18.7769 8.65C19.0028 8.8157 19.1798 9.02659 19.3079 9.28268C19.4359 9.53876 19.5 9.80991 19.5 10.0961V18.9423C19.5 19.3512 19.3522 19.7035 19.0567 19.999C18.7612 20.2945 18.4089 20.4422 18 20.4422H14.0577C13.8016 20.4422 13.5869 20.3556 13.4137 20.1824C13.2404 20.0091 13.1538 19.7945 13.1538 19.5384V14.4999H10.8461V19.5384C10.8461 19.7945 10.7595 20.0091 10.5863 20.1824C10.413 20.3556 10.1984 20.4422 9.94227 20.4422H5.99997C5.59101 20.4422 5.23877 20.2945 4.94327 19.999C4.64776 19.7035 4.5 19.3512 4.5 18.9423Z" fill="#FEFEFE"/>
</g>
</g>
</svg>
