<svg width="60" height="60" viewBox="0 0 60 60" fill="none" xmlns="http://www.w3.org/2000/svg">
<rect width="60" height="60" rx="16" fill="#F2B200" fill-opacity="0.1"/>
<mask id="mask0_1_17642" style="mask-type:alpha" maskUnits="userSpaceOnUse" x="12" y="12" width="36" height="36">
<rect x="12.8594" y="12.8574" width="34.2857" height="34.2857" fill="#D9D9D9"/>
</mask>
<g mask="url(#mask0_1_17642)">
<path d="M30.0036 43.5716C28.1265 43.5716 26.3621 43.2154 24.7104 42.503C23.0587 41.7906 21.6221 40.8238 20.4004 39.6026C19.1787 38.3814 18.2115 36.9454 17.4986 35.2944C16.786 33.6435 16.4297 31.8795 16.4297 30.0026C16.4297 28.1255 16.7859 26.3611 17.4983 24.7094C18.2106 23.0578 19.1774 21.6211 20.3986 20.3994C21.6198 19.1778 23.0559 18.2105 24.7068 17.4976C26.3578 16.785 28.1217 16.4287 29.9986 16.4287C31.8758 16.4287 33.6402 16.7849 35.2918 17.4973C36.9435 18.2097 38.3802 19.1764 39.6018 20.3976C40.8235 21.6188 41.7908 23.0549 42.5036 24.7059C43.2162 26.3568 43.5725 28.1207 43.5725 29.9976C43.5725 31.8748 43.2164 33.6392 42.504 35.2909C41.7916 36.9425 40.8248 38.3792 39.6036 39.6009C38.3824 40.8225 36.9464 41.7898 35.2954 42.5026C33.6444 43.2153 31.8805 43.5716 30.0036 43.5716ZM18.5725 30.0001H30.0011V18.5716C26.8106 18.5716 24.1083 19.6787 21.894 21.893C19.6797 24.1073 18.5725 26.8097 18.5725 30.0001Z" fill="#F2B200"/>
</g>
</svg>
