<svg width="19" height="17" viewBox="0 0 19 17" fill="none" xmlns="http://www.w3.org/2000/svg">
<path d="M0.5 13.7886V13.0846C0.5 12.5821 0.632083 12.1255 0.89625 11.7146C1.16025 11.3036 1.51667 10.986 1.9655 10.7616C2.85767 10.3105 3.78583 9.9528 4.75 9.68863C5.71417 9.42447 6.6975 9.29238 7.7 9.29238C7.90767 9.29238 8.07175 9.38213 8.19225 9.56163C8.31275 9.74113 8.341 9.93797 8.277 10.1521C8.19617 10.4508 8.13717 10.7495 8.1 11.0481C8.06283 11.347 8.04425 11.6508 8.04425 11.9596C8.04425 12.3596 8.08142 12.7478 8.15575 13.1241C8.23008 13.5005 8.33325 13.8732 8.46525 14.2424C8.56658 14.5 8.54608 14.742 8.40375 14.9684C8.26142 15.1947 8.06142 15.3079 7.80375 15.3079H2.01925C1.59742 15.3079 1.23875 15.1601 0.94325 14.8646C0.64775 14.569 0.5 14.2103 0.5 13.7886ZM14.8077 13.5386C15.3321 13.5386 15.7804 13.3524 16.1528 12.9799C16.5252 12.6074 16.7115 12.159 16.7115 11.6346C16.7115 11.1103 16.5252 10.662 16.1528 10.2896C15.7804 9.91713 15.3321 9.73088 14.8077 9.73088C14.2834 9.73088 13.835 9.91713 13.4625 10.2896C13.09 10.662 12.9038 11.1103 12.9038 11.6346C12.9038 12.159 13.09 12.6074 13.4625 12.9799C13.835 13.3524 14.2834 13.5386 14.8077 13.5386ZM8 7.69238C7.03467 7.69238 6.21 7.35038 5.526 6.66638C4.842 5.98255 4.5 5.15788 4.5 4.19238C4.5 3.22705 4.842 2.40238 5.526 1.71838C6.21 1.03438 7.03467 0.692383 8 0.692383C8.96533 0.692383 9.79 1.03438 10.474 1.71838C11.158 2.40238 11.5 3.22705 11.5 4.19238C11.5 5.15788 11.158 5.98255 10.474 6.66638C9.79 7.35038 8.96533 7.69238 8 7.69238ZM14.0038 15.4694L13.8828 14.7211C13.6443 14.6506 13.4198 14.5584 13.2095 14.4444C12.9993 14.3302 12.7993 14.1872 12.6095 14.0154L11.8655 14.2886C11.7065 14.3425 11.5532 14.3389 11.4057 14.2779C11.2584 14.217 11.1424 14.1206 11.0577 13.9886L10.925 13.7539C10.8403 13.6115 10.8099 13.4558 10.8337 13.2866C10.8574 13.1175 10.9353 12.9803 11.0673 12.8751L11.6655 12.4001C11.5937 12.1411 11.5577 11.886 11.5577 11.6346C11.5577 11.3835 11.5937 11.1284 11.6655 10.8694L11.077 10.3751C10.945 10.27 10.8655 10.137 10.8385 9.97613C10.8115 9.81513 10.8403 9.66355 10.925 9.52138L11.073 9.27138C11.1577 9.13922 11.2727 9.04272 11.4183 8.98188C11.5638 8.92105 11.716 8.91755 11.875 8.97138L12.6095 9.24438C12.7928 9.07255 12.9913 8.93122 13.2048 8.82038C13.4183 8.70938 13.6443 8.61863 13.8828 8.54813L14.0038 7.78463C14.0346 7.61547 14.1135 7.4793 14.2405 7.37613C14.3673 7.27297 14.5153 7.22138 14.6845 7.22138H14.95C15.1192 7.22138 15.2673 7.27555 15.3943 7.38388C15.5211 7.49222 15.5999 7.63097 15.6307 7.80013L15.7423 8.54813C15.9808 8.61863 16.2067 8.71197 16.4202 8.82813C16.6336 8.94413 16.8319 9.09313 17.0152 9.27513L17.7193 9.00213C17.8884 8.93797 18.0493 8.9363 18.202 8.99713C18.3545 9.05813 18.4731 9.1598 18.5578 9.30213L18.7 9.53663C18.7845 9.67897 18.8133 9.83313 18.7865 9.99913C18.7595 10.1651 18.68 10.3007 18.548 10.4059L17.9595 10.9001C18.0313 11.1386 18.0673 11.3886 18.0673 11.6501C18.0673 11.9116 18.0313 12.1616 17.9595 12.4001L18.5578 12.8751C18.6898 12.9803 18.7676 13.1149 18.7913 13.2789C18.8149 13.443 18.7845 13.5963 18.7 13.7386L18.5518 13.9886C18.4673 14.1206 18.3538 14.217 18.2115 14.2779C18.0692 14.3389 17.9185 14.3425 17.7595 14.2886L17.0152 14.0154C16.8256 14.1872 16.6256 14.3302 16.4152 14.4444C16.2051 14.5584 15.9808 14.6506 15.7423 14.7211L15.6307 15.4846C15.5999 15.654 15.5211 15.7902 15.3943 15.8934C15.2673 15.9965 15.1192 16.0481 14.95 16.0481H14.6845C14.5153 16.0481 14.3673 15.994 14.2405 15.8856C14.1135 15.7773 14.0346 15.6385 14.0038 15.4694Z" fill="#165DC9"/>
</svg>
