<svg width="18" height="16" viewBox="0 0 18 16" fill="none" xmlns="http://www.w3.org/2000/svg">
<path d="M3.35222 13.8912L1.45568 15.7451C1.18605 16.0086 0.876026 16.0678 0.525625 15.9227C0.175208 15.7775 0 15.5182 0 15.1449V1.67408C0 1.20628 0.16579 0.81032 0.49737 0.486192C0.82895 0.162064 1.23401 0 1.71256 0H16.2874C16.766 0 17.1711 0.162064 17.5026 0.486192C17.8342 0.81032 18 1.20628 18 1.67408V12.2171C18 12.6849 17.8342 13.0808 17.5026 13.405C17.1711 13.7291 16.766 13.8912 16.2874 13.8912H3.35222ZM4.26315 10.4184H9.94737C10.1487 10.4184 10.3174 10.3518 10.4536 10.2186C10.5898 10.0854 10.6579 9.92039 10.6579 9.72352C10.6579 9.52663 10.5898 9.36171 10.4536 9.22874C10.3174 9.09577 10.1487 9.02928 9.94737 9.02928H4.26315C4.06183 9.02928 3.89309 9.09587 3.75692 9.22904C3.62073 9.36222 3.55264 9.52725 3.55264 9.72412C3.55264 9.921 3.62073 10.0859 3.75692 10.2189C3.89309 10.3519 4.06183 10.4184 4.26315 10.4184ZM4.26315 7.64012H13.7369C13.9382 7.64012 14.1069 7.57353 14.2431 7.44036C14.3793 7.30717 14.4474 7.14215 14.4474 6.94528C14.4474 6.74839 14.3793 6.58347 14.2431 6.4505C14.1069 6.31753 13.9382 6.25104 13.7369 6.25104H4.26315C4.06183 6.25104 3.89309 6.31763 3.75692 6.4508C3.62073 6.58398 3.55264 6.74901 3.55264 6.94588C3.55264 7.14276 3.62073 7.30769 3.75692 7.44066C3.89309 7.57363 4.06183 7.64012 4.26315 7.64012ZM4.26315 4.86188H13.7369C13.9382 4.86188 14.1069 4.79529 14.2431 4.66212C14.3793 4.52893 14.4474 4.36391 14.4474 4.16704C14.4474 3.97015 14.3793 3.80523 14.2431 3.67226C14.1069 3.53929 13.9382 3.4728 13.7369 3.4728H4.26315C4.06183 3.4728 3.89309 3.53939 3.75692 3.67256C3.62073 3.80574 3.55264 3.97077 3.55264 4.16764C3.55264 4.36452 3.62073 4.52945 3.75692 4.66242C3.89309 4.79539 4.06183 4.86188 4.26315 4.86188Z" fill="#00183D"/>
</svg>
