<svg width="18" height="16" viewBox="0 0 18 16" fill="none" xmlns="http://www.w3.org/2000/svg">
<path d="M3.35222 13.8907L1.45568 15.7445C1.18605 16.0081 0.876026 16.0677 0.525625 15.9235C0.175208 15.7792 0 15.5195 0 15.1444V1.67402C0 1.20624 0.16579 0.810291 0.49737 0.486174C0.82895 0.162058 1.23401 0 1.71256 0H16.2874C16.766 0 17.1711 0.162058 17.5026 0.486174C17.8342 0.810291 18 1.20624 18 1.67402V12.2166C18 12.6844 17.8342 13.0804 17.5026 13.4045C17.1711 13.7286 16.766 13.8907 16.2874 13.8907H3.35222ZM2.74738 12.5016H16.2874C16.3603 12.5016 16.4271 12.4719 16.4879 12.4126C16.5486 12.3532 16.579 12.2879 16.579 12.2166V1.67402C16.579 1.60277 16.5486 1.53746 16.4879 1.47809C16.4271 1.41873 16.3603 1.38905 16.2874 1.38905H1.71256C1.63968 1.38905 1.57286 1.41873 1.51212 1.47809C1.4514 1.53746 1.42103 1.60277 1.42103 1.67402V13.7838L2.74738 12.5016ZM4.26315 10.418H9.94737C10.149 10.418 10.3178 10.3515 10.4538 10.2185C10.5899 10.0856 10.6579 9.92055 10.6579 9.72347C10.6579 9.52639 10.5899 9.36137 10.4538 9.2284C10.3178 9.09544 10.149 9.02896 9.94737 9.02896H4.26315C4.06153 9.02896 3.89271 9.09544 3.75668 9.2284C3.62065 9.36137 3.55264 9.52639 3.55264 9.72347C3.55264 9.92055 3.62065 10.0856 3.75668 10.2185C3.89271 10.3515 4.06153 10.418 4.26315 10.418ZM4.26315 7.63984H13.7369C13.9385 7.63984 14.1073 7.57336 14.2433 7.44039C14.3793 7.30743 14.4474 7.14241 14.4474 6.94533C14.4474 6.74825 14.3793 6.58323 14.2433 6.45026C14.1073 6.3173 13.9385 6.25081 13.7369 6.25081H4.26315C4.06153 6.25081 3.89271 6.3173 3.75668 6.45026C3.62065 6.58323 3.55264 6.74825 3.55264 6.94533C3.55264 7.14241 3.62065 7.30743 3.75668 7.44039C3.89271 7.57336 4.06153 7.63984 4.26315 7.63984ZM4.26315 4.8617H13.7369C13.9385 4.8617 14.1073 4.79522 14.2433 4.66225C14.3793 4.52929 14.4474 4.36427 14.4474 4.16719C14.4474 3.97011 14.3793 3.80509 14.2433 3.67212C14.1073 3.53916 13.9385 3.47267 13.7369 3.47267H4.26315C4.06153 3.47267 3.89271 3.53916 3.75668 3.67212C3.62065 3.80509 3.55264 3.97011 3.55264 4.16719C3.55264 4.36427 3.62065 4.52929 3.75668 4.66225C3.89271 4.79522 4.06153 4.8617 4.26315 4.8617Z" fill="#272727"/>
</svg>
