<svg width="21" height="20" viewBox="0 0 21 20" fill="none" xmlns="http://www.w3.org/2000/svg">
<mask id="mask0_776_950" style="mask-type:alpha" maskUnits="userSpaceOnUse" x="0" y="0" width="21" height="20">
<rect x="0.5" width="20" height="20" fill="#D9D9D9"/>
</mask>
<g mask="url(#mask0_776_950)">
<path d="M4.87514 15.737C4.69778 15.737 4.54931 15.6772 4.42973 15.5576C4.31 15.4379 4.25014 15.2894 4.25014 15.1122C4.25014 14.9348 4.31 14.7863 4.42973 14.6666C4.54931 14.547 4.69778 14.4872 4.87514 14.4872H5.7566V8.26909C5.7566 7.14839 6.1025 6.15749 6.79431 5.29638C7.48598 4.43527 8.37403 3.8845 9.45848 3.64409V3.12492C9.45848 2.83645 9.56 2.59075 9.76306 2.38784C9.96598 2.18478 10.2117 2.08325 10.5001 2.08325C10.7886 2.08325 11.0343 2.18478 11.2372 2.38784C11.4403 2.59075 11.5418 2.83645 11.5418 3.12492V3.64409C12.6263 3.8845 13.5143 4.43527 14.206 5.29638C14.8978 6.15749 15.2437 7.14839 15.2437 8.26909V14.4872H16.1251C16.3025 14.4872 16.451 14.547 16.5706 14.6666C16.6903 14.7863 16.7501 14.9348 16.7501 15.1122C16.7501 15.2894 16.6903 15.4379 16.5706 15.5576C16.451 15.6772 16.3025 15.737 16.1251 15.737H4.87514ZM10.5001 18.0768C10.0846 18.0768 9.72966 17.9296 9.43535 17.6353C9.14091 17.341 8.99369 16.986 8.99369 16.5703H12.0066C12.0066 16.986 11.8594 17.341 11.5649 17.6353C11.2706 17.9296 10.9157 18.0768 10.5001 18.0768ZM3.30473 8.26117C3.12737 8.26117 2.97882 8.1936 2.8591 8.05846C2.73952 7.92332 2.68827 7.76436 2.70535 7.58159C2.79507 6.54534 3.07334 5.58332 3.54014 4.69554C4.00709 3.80763 4.61125 3.04103 5.35264 2.39575C5.49056 2.27506 5.64737 2.21895 5.82306 2.22742C5.99875 2.23603 6.14007 2.31353 6.24702 2.45992C6.35382 2.60631 6.39334 2.76388 6.36556 2.93263C6.33778 3.10138 6.255 3.24777 6.11723 3.37179C5.52209 3.90165 5.03889 4.52825 4.66764 5.25159C4.29639 5.97478 4.06591 6.75895 3.97619 7.60409C3.95369 7.78672 3.88181 7.94193 3.76056 8.06971C3.63931 8.19735 3.48737 8.26117 3.30473 8.26117ZM17.6956 8.26117C17.5129 8.26117 17.361 8.19735 17.2397 8.06971C17.1185 7.94193 17.0466 7.78672 17.0241 7.60409C16.9344 6.75895 16.7039 5.97478 16.3326 5.25159C15.9614 4.52825 15.4782 3.90165 14.8831 3.37179C14.7453 3.24777 14.6625 3.10138 14.6347 2.93263C14.6069 2.76388 14.6465 2.60631 14.7533 2.45992C14.8602 2.31353 15.0015 2.23603 15.1772 2.22742C15.3529 2.21895 15.5097 2.27506 15.6476 2.39575C16.389 3.04103 16.9932 3.80763 17.4601 4.69554C17.927 5.58332 18.2052 6.54534 18.2949 7.58159C18.312 7.76436 18.2608 7.92332 18.1412 8.05846C18.0215 8.1936 17.8729 8.26117 17.6956 8.26117Z" fill="#E47232"/>
</g>
</svg>
