<svg width="20" height="20" viewBox="0 0 20 20" fill="none" xmlns="http://www.w3.org/2000/svg">
<mask id="mask0_776_2028" style="mask-type:alpha" maskUnits="userSpaceOnUse" x="0" y="0" width="20" height="20">
<rect width="20" height="20" fill="#D9D9D9"/>
</mask>
<g mask="url(#mask0_776_2028)">
<path d="M8.81721 11.7885L6.88138 9.85242C6.76596 9.73714 6.62089 9.67811 6.44617 9.67534C6.27159 9.6727 6.12388 9.73172 6.00304 9.85242C5.88235 9.97325 5.822 10.1196 5.822 10.2916C5.822 10.4635 5.88235 10.6099 6.00304 10.7308L8.28992 13.0176C8.44061 13.1682 8.61638 13.2435 8.81721 13.2435C9.01804 13.2435 9.19381 13.1682 9.3445 13.0176L13.9808 8.38138C14.096 8.26596 14.1551 8.12089 14.1578 7.94617C14.1605 7.77158 14.1014 7.62388 13.9808 7.50304C13.8599 7.38235 13.7135 7.322 13.5416 7.322C13.3696 7.322 13.2233 7.38235 13.1024 7.50304L8.81721 11.7885ZM10.0014 17.9166C8.90638 17.9166 7.87714 17.7088 6.91367 17.2933C5.9502 16.8777 5.11214 16.3137 4.3995 15.6014C3.68686 14.889 3.12263 14.0513 2.70679 13.0883C2.2911 12.1252 2.08325 11.0962 2.08325 10.0014C2.08325 8.90638 2.29103 7.87714 2.70659 6.91367C3.12214 5.9502 3.6861 5.11214 4.39846 4.3995C5.11082 3.68686 5.94853 3.12263 6.91159 2.70679C7.87464 2.2911 8.9036 2.08325 9.99846 2.08325C11.0935 2.08325 12.1227 2.29103 13.0862 2.70658C14.0496 3.12214 14.8877 3.6861 15.6003 4.39846C16.313 5.11082 16.8772 5.94853 17.293 6.91159C17.7087 7.87464 17.9166 8.9036 17.9166 9.99846C17.9166 11.0935 17.7088 12.1227 17.2933 13.0862C16.8777 14.0496 16.3137 14.8877 15.6014 15.6003C14.889 16.313 14.0513 16.8772 13.0883 17.293C12.1252 17.7087 11.0962 17.9166 10.0014 17.9166Z" fill="#808080"/>
</g>
</svg>
