<svg width="24" height="24" viewBox="0 0 24 24" fill="none" xmlns="http://www.w3.org/2000/svg">
<g id="Icons">
<mask id="mask0_145_22070" style="mask-type:alpha" maskUnits="userSpaceOnUse" x="0" y="0" width="24" height="24">
<rect id="Bounding box" width="24" height="24" fill="#D9D9D9"/>
</mask>
<g mask="url(#mask0_145_22070)">
<path id="orders" d="M4.50035 17.6925V7.60022L2.95035 4.2214C2.86575 4.0355 2.86063 3.84383 2.93498 3.6464C3.00935 3.44897 3.13947 3.30794 3.32535 3.22332C3.51125 3.13872 3.70292 3.13103 3.90035 3.20025C4.09777 3.26948 4.23879 3.39705 4.3234 3.58295L6.14263 7.55022H17.858L19.6773 3.58295C19.7619 3.39705 19.9029 3.26692 20.1003 3.19257C20.2977 3.11821 20.4894 3.12846 20.6753 3.22332C20.8612 3.30794 20.9913 3.44897 21.0657 3.6464C21.14 3.84383 21.1349 4.0355 21.0503 4.2214L19.5003 7.60022V17.6925C19.5003 18.1912 19.3237 18.6171 18.9705 18.9703C18.6173 19.3236 18.1913 19.5002 17.6926 19.5002H6.30805C5.80934 19.5002 5.38338 19.3236 5.03018 18.9703C4.67696 18.6171 4.50035 18.1912 4.50035 17.6925ZM10.0003 12.7502H14.0003C14.2131 12.7502 14.3913 12.6784 14.5349 12.5348C14.6785 12.3912 14.7503 12.213 14.7503 12.0002C14.7503 11.7874 14.6785 11.6092 14.5349 11.4656C14.3913 11.322 14.2131 11.2502 14.0003 11.2502H10.0003C9.78751 11.2502 9.60931 11.322 9.46573 11.4656C9.32215 11.6092 9.25035 11.7874 9.25035 12.0002C9.25035 12.213 9.32215 12.3912 9.46573 12.5348C9.60931 12.6784 9.78751 12.7502 10.0003 12.7502ZM6.30805 18.0002H17.6926C17.7824 18.0002 17.8561 17.9713 17.9138 17.9136C17.9715 17.8559 18.0003 17.7822 18.0003 17.6925V9.0502H6.00033V17.6925C6.00033 17.7822 6.02918 17.8559 6.08688 17.9136C6.14458 17.9713 6.2183 18.0002 6.30805 18.0002Z" fill="white"/>
</g>
</g>
</svg>
