<svg width="16" height="16" viewBox="0 0 16 16" fill="none" xmlns="http://www.w3.org/2000/svg">
<path d="M7.99997 7.69231C7.03461 7.69231 6.20993 7.35033 5.52595 6.66636C4.84198 5.98239 4.5 5.15773 4.5 4.19236C4.5 3.22698 4.84198 2.4023 5.52595 1.71833C6.20993 1.03437 7.03461 0.692383 7.99997 0.692383C8.96534 0.692383 9.79002 1.03437 10.474 1.71833C11.158 2.4023 11.5 3.22698 11.5 4.19236C11.5 5.15773 11.158 5.98239 10.474 6.66636C9.79002 7.35033 8.96534 7.69231 7.99997 7.69231ZM0.5 13.7885V13.0846C0.5 12.5949 0.633016 12.1414 0.89905 11.7241C1.16507 11.3068 1.52051 10.986 1.96537 10.7616C2.95384 10.277 3.95096 9.91351 4.95672 9.67121C5.96249 9.42891 6.97691 9.30776 7.99997 9.30776C9.02304 9.30776 10.0375 9.42891 11.0432 9.67121C12.049 9.91351 13.0461 10.277 14.0346 10.7616C14.4794 10.986 14.8349 11.3068 15.1009 11.7241C15.3669 12.1414 15.5 12.5949 15.5 13.0846V13.7885C15.5 14.2103 15.3522 14.5689 15.0567 14.8644C14.7612 15.1599 14.4025 15.3077 13.9808 15.3077H2.0192C1.59742 15.3077 1.23877 15.1599 0.943275 14.8644C0.647758 14.5689 0.5 14.2103 0.5 13.7885Z" fill="#00183D"/>
</svg>
