<svg width="18" height="20" viewBox="0 0 18 20" fill="none" xmlns="http://www.w3.org/2000/svg">
<path d="M0.5 18.3773V1.11958C0.5 1.01575 0.543583 0.946161 0.63075 0.910828C0.717917 0.875661 0.8 0.890161 0.877 0.954327L1.59225 1.58308C1.67942 1.65741 1.77692 1.69458 1.88475 1.69458C1.99242 1.69458 2.08983 1.65741 2.177 1.58308L3.0155 0.879327C3.10267 0.804827 3.20008 0.767578 3.30775 0.767578C3.41542 0.767578 3.51283 0.804827 3.6 0.879327L4.4385 1.58308C4.52567 1.65741 4.62308 1.69458 4.73075 1.69458C4.83842 1.69458 4.93583 1.65741 5.023 1.58308L5.8615 0.879327C5.94867 0.804827 6.04608 0.767578 6.15375 0.767578C6.26158 0.767578 6.35908 0.804827 6.44625 0.879327L7.28475 1.58308C7.37192 1.65741 7.46933 1.69458 7.577 1.69458C7.68467 1.69458 7.78208 1.65741 7.86925 1.58308L8.70775 0.879327C8.79492 0.804827 8.89233 0.767578 9 0.767578C9.10767 0.767578 9.20508 0.804827 9.29225 0.879327L10.1307 1.58308C10.2179 1.65741 10.3153 1.69458 10.423 1.69458C10.5307 1.69458 10.6281 1.65741 10.7153 1.58308L11.5538 0.879327C11.6409 0.804827 11.7384 0.767578 11.8462 0.767578C11.9539 0.767578 12.0513 0.804827 12.1385 0.879327L12.977 1.58308C13.0642 1.65741 13.1616 1.69458 13.2693 1.69458C13.3769 1.69458 13.4743 1.65741 13.5615 1.58308L14.4 0.879327C14.4872 0.804827 14.5846 0.767578 14.6923 0.767578C14.7999 0.767578 14.8973 0.804827 14.9845 0.879327L15.823 1.58308C15.9102 1.65741 16.0076 1.69458 16.1152 1.69458C16.2231 1.69458 16.3206 1.65741 16.4078 1.58308L17.123 0.954327C17.2 0.890161 17.2821 0.875661 17.3693 0.910828C17.4564 0.946161 17.5 1.01575 17.5 1.11958V18.3773C17.5 18.5785 17.4144 18.7176 17.2432 18.7946C17.0721 18.8714 16.9096 18.8426 16.7558 18.7081L16.4078 18.4176C16.3206 18.3432 16.2231 18.3061 16.1152 18.3061C16.0076 18.3061 15.9102 18.3432 15.823 18.4176L14.9845 19.1213C14.8973 19.1958 14.7999 19.2331 14.6923 19.2331C14.5846 19.2331 14.4872 19.1958 14.4 19.1213L13.5615 18.4176C13.4743 18.3432 13.3769 18.3061 13.2693 18.3061C13.1616 18.3061 13.0642 18.3432 12.977 18.4176L12.1385 19.1213C12.0513 19.1958 11.9539 19.2331 11.8462 19.2331C11.7384 19.2331 11.6409 19.1958 11.5538 19.1213L10.7153 18.4176C10.6281 18.3432 10.5307 18.3061 10.423 18.3061C10.3153 18.3061 10.2179 18.3432 10.1307 18.4176L9.29225 19.1213C9.20508 19.1958 9.10767 19.2331 9 19.2331C8.89233 19.2331 8.79492 19.1958 8.70775 19.1213L7.86925 18.4176C7.78208 18.3432 7.68467 18.3061 7.577 18.3061C7.46933 18.3061 7.37192 18.3432 7.28475 18.4176L6.44625 19.1213C6.35908 19.1958 6.26158 19.2331 6.15375 19.2331C6.04608 19.2331 5.94867 19.1958 5.8615 19.1213L5.023 18.4176C4.93583 18.3432 4.83842 18.3061 4.73075 18.3061C4.62308 18.3061 4.52567 18.3432 4.4385 18.4176L3.6 19.1213C3.51283 19.1958 3.41542 19.2331 3.30775 19.2331C3.20008 19.2331 3.10267 19.1958 3.0155 19.1213L2.177 18.4176C2.08983 18.3432 1.99242 18.3061 1.88475 18.3061C1.77692 18.3061 1.67942 18.3432 1.59225 18.4176L1.24425 18.7081C1.09042 18.8426 0.927917 18.8714 0.75675 18.7946C0.585583 18.7176 0.5 18.5785 0.5 18.3773ZM4 14.4426H14C14.2128 14.4426 14.391 14.3708 14.5345 14.2273C14.6782 14.0837 14.75 13.9054 14.75 13.6926C14.75 13.4797 14.6782 13.3016 14.5345 13.1581C14.391 13.0144 14.2128 12.9426 14 12.9426H4C3.78717 12.9426 3.609 13.0144 3.4655 13.1581C3.32183 13.3016 3.25 13.4797 3.25 13.6926C3.25 13.9054 3.32183 14.0837 3.4655 14.2273C3.609 14.3708 3.78717 14.4426 4 14.4426ZM4 10.7503H14C14.2128 10.7503 14.391 10.6785 14.5345 10.5348C14.6782 10.3913 14.75 10.2132 14.75 10.0003C14.75 9.78749 14.6782 9.60933 14.5345 9.46583C14.391 9.32216 14.2128 9.25033 14 9.25033H4C3.78717 9.25033 3.609 9.32216 3.4655 9.46583C3.32183 9.60933 3.25 9.78749 3.25 10.0003C3.25 10.2132 3.32183 10.3913 3.4655 10.5348C3.609 10.6785 3.78717 10.7503 4 10.7503ZM4 7.05808H14C14.2128 7.05808 14.391 6.98625 14.5345 6.84258C14.6782 6.69908 14.75 6.52091 14.75 6.30808C14.75 6.09524 14.6782 5.91699 14.5345 5.77333C14.391 5.62983 14.2128 5.55808 14 5.55808H4C3.78717 5.55808 3.609 5.62983 3.4655 5.77333C3.32183 5.91699 3.25 6.09524 3.25 6.30808C3.25 6.52091 3.32183 6.69908 3.4655 6.84258C3.609 6.98625 3.78717 7.05808 4 7.05808Z" fill="#165DC9"/>
</svg>
