<svg width="19" height="13" viewBox="0 0 19 13" fill="none" xmlns="http://www.w3.org/2000/svg">
<path fill-rule="evenodd" clip-rule="evenodd" d="M10.6823 2.91165L19 0.5L16.9297 8.90916L14.3471 6.4298L10.181 10.7694C10.0396 10.9167 9.84422 11 9.64 11C9.43578 11 9.24039 10.9167 9.09896 10.7694L6.04 7.58298L1.54104 12.2694C1.25419 12.5682 0.779411 12.5779 0.480602 12.291C0.181794 12.0042 0.172104 11.5294 0.45896 11.2306L5.49896 5.9806C5.64039 5.83328 5.83578 5.75 6.04 5.75C6.24422 5.75 6.43961 5.83328 6.58104 5.9806L9.64 9.16702L13.265 5.39101L10.6823 2.91165Z" fill="#18CE98"/>
</svg>
