<svg width="15" height="19" viewBox="0 0 15 19" fill="none" xmlns="http://www.w3.org/2000/svg">
<path d="M12.8157 5.7636L9.2099 12.0089L9.7827 14.1473C9.80991 14.2489 9.81643 14.3492 9.80226 14.4485C9.78803 14.5474 9.75612 14.6399 9.70654 14.7257L9.49279 15.096C9.38746 15.2784 9.23501 15.3968 9.03544 15.4511C8.83602 15.5055 8.64306 15.4789 8.45658 15.3712L5.18408 13.4819L2.48983 18.1484C2.38358 18.3325 2.23226 18.4507 2.03586 18.5032C1.83947 18.5557 1.64925 18.5289 1.46522 18.4226C1.28105 18.3163 1.16274 18.165 1.1103 17.9689C1.05771 17.7726 1.08455 17.5825 1.1908 17.3984L3.88505 12.7319L0.612553 10.8425C0.426069 10.7348 0.306532 10.581 0.253942 10.3811C0.201208 10.1811 0.227507 9.98991 0.33284 9.80747L0.546589 9.43724C0.596173 9.35136 0.660267 9.27752 0.738871 9.2157C0.817703 9.15383 0.90789 9.10929 1.00943 9.08208L3.14773 8.50894L6.75348 2.2636L6.53697 2.1386C6.35294 2.03235 6.23467 1.88103 6.18217 1.68463C6.12952 1.48815 6.15633 1.2979 6.26258 1.11386C6.36891 0.92969 6.52023 0.811424 6.71655 0.759066C6.9128 0.70648 7.10294 0.733313 7.28697 0.839563L13.7822 4.58956C13.9662 4.69581 14.0845 4.84714 14.137 5.04353C14.1896 5.24001 14.1628 5.43027 14.0566 5.6143C13.9502 5.79847 13.7989 5.91674 13.6026 5.9691C13.4063 6.02168 13.2162 5.99485 13.0322 5.8886L12.8157 5.7636Z" fill="#272727"/>
</svg>
