<svg width="20" height="20" viewBox="0 0 20 20" fill="none" xmlns="http://www.w3.org/2000/svg">
<mask id="mask0_1_12330" style="mask-type:alpha" maskUnits="userSpaceOnUse" x="0" y="0" width="20" height="20">
<rect width="20" height="20" fill="#D9D9D9"/>
</mask>
<g mask="url(#mask0_1_12330)">
<path d="M9.99992 14.263C10.9562 14.263 11.7668 13.9305 12.4318 13.2655C13.0968 12.6005 13.4293 11.7899 13.4293 10.8337C13.4293 9.87741 13.0968 9.06678 12.4318 8.40178C11.7668 7.73678 10.9562 7.40428 9.99992 7.40428C9.04367 7.40428 8.23304 7.73678 7.56804 8.40178C6.90304 9.06678 6.57054 9.87741 6.57054 10.8337C6.57054 11.7899 6.90304 12.6005 7.56804 13.2655C8.23304 13.9305 9.04367 14.263 9.99992 14.263ZM9.99992 13.0132C9.3845 13.0132 8.86742 12.8038 8.44867 12.3849C8.02978 11.9662 7.82034 11.4491 7.82034 10.8337C7.82034 10.2182 8.02978 9.70116 8.44867 9.28241C8.86742 8.86352 9.3845 8.65408 9.99992 8.65408C10.6153 8.65408 11.1324 8.86352 11.5512 9.28241C11.9701 9.70116 12.1795 10.2182 12.1795 10.8337C12.1795 11.4491 11.9701 11.9662 11.5512 12.3849C11.1324 12.8038 10.6153 13.0132 9.99992 13.0132ZM3.58971 17.0837C3.16874 17.0837 2.81242 16.9378 2.52075 16.6462C2.22909 16.3545 2.08325 15.9982 2.08325 15.5772V6.09012C2.08325 5.66915 2.22909 5.31283 2.52075 5.02116C2.81242 4.72949 3.16874 4.58366 3.58971 4.58366H6.1345L7.22429 3.40262C7.3611 3.25192 7.52645 3.13331 7.72034 3.04678C7.91422 2.96026 8.11853 2.91699 8.33325 2.91699H11.6666C11.8813 2.91699 12.0856 2.96026 12.2795 3.04678C12.4734 3.13331 12.6387 3.25192 12.7755 3.40262L13.8653 4.58366H16.4101C16.8311 4.58366 17.1874 4.72949 17.4791 5.02116C17.7708 5.31283 17.9166 5.66915 17.9166 6.09012V15.5772C17.9166 15.9982 17.7708 16.3545 17.4791 16.6462C17.1874 16.9378 16.8311 17.0837 16.4101 17.0837H3.58971Z" fill="white"/>
</g>
</svg>
