<svg width="24" height="24" viewBox="0 0 24 24" fill="none" xmlns="http://www.w3.org/2000/svg">
<g id="attach_file">
<mask id="mask0_1_12305" style="mask-type:alpha" maskUnits="userSpaceOnUse" x="0" y="0" width="24" height="24">
<rect id="Bounding box" width="24" height="24" fill="#D9D9D9"/>
</mask>
<g mask="url(#mask0_1_12305)">
<path id="attach_file_2" d="M13.3895 18.6969C12.2411 19.8453 10.8644 20.4229 9.25924 20.4298C7.65406 20.4367 6.27831 19.8671 5.132 18.7207C3.98567 17.5744 3.41484 16.1975 3.41951 14.5901C3.42418 12.9827 4.00067 11.6048 5.149 10.4565L11.5062 4.09931C12.322 3.28342 13.2988 2.87321 14.4365 2.86868C15.5743 2.86414 16.5511 3.26981 17.3669 4.0857C18.1828 4.90159 18.5885 5.87839 18.584 7.01611C18.5794 8.15382 18.1692 9.13061 17.3534 9.9465L11.3362 15.9637C10.8575 16.4423 10.2822 16.6843 9.61014 16.6894C8.93814 16.6946 8.36249 16.4575 7.88319 15.9782C7.4039 15.499 7.16309 14.9219 7.16074 14.2471C7.15838 13.5722 7.39888 12.9931 7.88224 12.5098L14.0898 6.30223L15.1504 7.36287L8.94288 13.5704C8.75341 13.7599 8.65753 13.9831 8.65525 14.2401C8.65299 14.4971 8.74659 14.7204 8.93606 14.9099C9.12554 15.0993 9.34878 15.1929 9.60578 15.1907C9.8628 15.1884 10.086 15.0925 10.2755 14.9031L16.2995 8.87907C16.8144 8.34964 17.0752 7.72612 17.082 7.0085C17.0887 6.29089 16.8301 5.67016 16.3063 5.14634C15.7847 4.62472 15.1616 4.36603 14.437 4.37029C13.7124 4.37454 13.089 4.63776 12.5668 5.15993L6.20963 11.5171C5.34751 12.3647 4.916 13.3873 4.91508 14.5849C4.91418 15.7824 5.34086 16.8083 6.1951 17.6626C7.03732 18.5048 8.05282 18.9211 9.2416 18.9114C10.4304 18.9017 11.4595 18.4767 12.3288 17.6363L18.8764 11.0888L19.937 12.1494L13.3895 18.6969Z" fill="#0D0D0D"/>
</g>
</g>
</svg>
