<svg width="24" height="24" viewBox="0 0 24 24" fill="none" xmlns="http://www.w3.org/2000/svg">
<g id="calendar_month">
<mask id="mask0_1_9328" style="mask-type:alpha" maskUnits="userSpaceOnUse" x="0" y="0" width="24" height="24">
<rect id="Bounding box" width="24" height="24" fill="#D9D9D9"/>
</mask>
<g mask="url(#mask0_1_9328)">
<path id="calendar_month_2" d="M5.30848 21.5C4.80332 21.5 4.37573 21.325 4.02573 20.975C3.67573 20.625 3.50073 20.1974 3.50073 19.6923V6.30777C3.50073 5.8026 3.67573 5.37502 4.02573 5.02502C4.37573 4.67502 4.80332 4.50002 5.30848 4.50002H6.69298V2.38477H8.23148V4.50002H15.8085V2.38477H17.3085V4.50002H18.693C19.1981 4.50002 19.6257 4.67502 19.9757 5.02502C20.3257 5.37502 20.5007 5.8026 20.5007 6.30777V19.6923C20.5007 20.1974 20.3257 20.625 19.9757 20.975C19.6257 21.325 19.1981 21.5 18.693 21.5H5.30848ZM5.30848 20H18.693C18.77 20 18.8405 19.9679 18.9045 19.9038C18.9686 19.8398 19.0007 19.7693 19.0007 19.6923V10.3078H5.00073V19.6923C5.00073 19.7693 5.03282 19.8398 5.09698 19.9038C5.16098 19.9679 5.23148 20 5.30848 20ZM5.00073 8.80777H19.0007V6.30777C19.0007 6.23077 18.9686 6.16026 18.9045 6.09626C18.8405 6.0321 18.77 6.00002 18.693 6.00002H5.30848C5.23148 6.00002 5.16098 6.0321 5.09698 6.09626C5.03282 6.16026 5.00073 6.23077 5.00073 6.30777V8.80777ZM12.0007 14.077C11.7559 14.077 11.5472 13.9908 11.3747 13.8183C11.2024 13.6459 11.1162 13.4373 11.1162 13.1923C11.1162 12.9474 11.2024 12.7388 11.3747 12.5663C11.5472 12.3939 11.7559 12.3078 12.0007 12.3078C12.2456 12.3078 12.4542 12.3939 12.6267 12.5663C12.7991 12.7388 12.8852 12.9474 12.8852 13.1923C12.8852 13.4373 12.7991 13.6459 12.6267 13.8183C12.4542 13.9908 12.2456 14.077 12.0007 14.077ZM8.00073 14.077C7.7559 14.077 7.54723 13.9908 7.37473 13.8183C7.2024 13.6459 7.11623 13.4373 7.11623 13.1923C7.11623 12.9474 7.2024 12.7388 7.37473 12.5663C7.54723 12.3939 7.7559 12.3078 8.00073 12.3078C8.24557 12.3078 8.45423 12.3939 8.62673 12.5663C8.79907 12.7388 8.88523 12.9474 8.88523 13.1923C8.88523 13.4373 8.79907 13.6459 8.62673 13.8183C8.45423 13.9908 8.24557 14.077 8.00073 14.077ZM16.0007 14.077C15.7559 14.077 15.5472 13.9908 15.3747 13.8183C15.2024 13.6459 15.1162 13.4373 15.1162 13.1923C15.1162 12.9474 15.2024 12.7388 15.3747 12.5663C15.5472 12.3939 15.7559 12.3078 16.0007 12.3078C16.2456 12.3078 16.4542 12.3939 16.6267 12.5663C16.7991 12.7388 16.8852 12.9474 16.8852 13.1923C16.8852 13.4373 16.7991 13.6459 16.6267 13.8183C16.4542 13.9908 16.2456 14.077 16.0007 14.077ZM12.0007 18C11.7559 18 11.5472 17.9138 11.3747 17.7413C11.2024 17.5689 11.1162 17.3603 11.1162 17.1155C11.1162 16.8705 11.2024 16.6618 11.3747 16.4895C11.5472 16.317 11.7559 16.2308 12.0007 16.2308C12.2456 16.2308 12.4542 16.317 12.6267 16.4895C12.7991 16.6618 12.8852 16.8705 12.8852 17.1155C12.8852 17.3603 12.7991 17.5689 12.6267 17.7413C12.4542 17.9138 12.2456 18 12.0007 18ZM8.00073 18C7.7559 18 7.54723 17.9138 7.37473 17.7413C7.2024 17.5689 7.11623 17.3603 7.11623 17.1155C7.11623 16.8705 7.2024 16.6618 7.37473 16.4895C7.54723 16.317 7.7559 16.2308 8.00073 16.2308C8.24557 16.2308 8.45423 16.317 8.62673 16.4895C8.79907 16.6618 8.88523 16.8705 8.88523 17.1155C8.88523 17.3603 8.79907 17.5689 8.62673 17.7413C8.45423 17.9138 8.24557 18 8.00073 18ZM16.0007 18C15.7559 18 15.5472 17.9138 15.3747 17.7413C15.2024 17.5689 15.1162 17.3603 15.1162 17.1155C15.1162 16.8705 15.2024 16.6618 15.3747 16.4895C15.5472 16.317 15.7559 16.2308 16.0007 16.2308C16.2456 16.2308 16.4542 16.317 16.6267 16.4895C16.7991 16.6618 16.8852 16.8705 16.8852 17.1155C16.8852 17.3603 16.7991 17.5689 16.6267 17.7413C16.4542 17.9138 16.2456 18 16.0007 18Z" fill="#0D0D0D"/>
</g>
</g>
</svg>
