<svg width="20" height="20" viewBox="0 0 20 20" fill="none" xmlns="http://www.w3.org/2000/svg">
<g id="clock_loader_60">
<mask id="mask0_1_10366" style="mask-type:alpha" maskUnits="userSpaceOnUse" x="0" y="0" width="20" height="20">
<rect id="Bounding box" width="20" height="20" fill="#D9D9D9"/>
</mask>
<g mask="url(#mask0_1_10366)">
<path id="clock_loader_60_2" d="M10.0014 17.9166C8.90638 17.9166 7.87714 17.7088 6.91367 17.2933C5.9502 16.8777 5.11214 16.3137 4.3995 15.6014C3.68686 14.889 3.12263 14.0513 2.70679 13.0883C2.2911 12.1252 2.08325 11.0962 2.08325 10.0014C2.08325 8.90638 2.29103 7.87714 2.70659 6.91367C3.12214 5.9502 3.6861 5.11214 4.39846 4.3995C5.11082 3.68686 5.94853 3.12263 6.91159 2.70679C7.87464 2.2911 8.9036 2.08325 9.99846 2.08325C11.0935 2.08325 12.1227 2.29103 13.0862 2.70658C14.0496 3.12214 14.8877 3.6861 15.6003 4.39846C16.313 5.11082 16.8772 5.94853 17.293 6.91159C17.7087 7.87464 17.9166 8.9036 17.9166 9.99846C17.9166 11.0935 17.7088 12.1227 17.2933 13.0862C16.8777 14.0496 16.3137 14.8877 15.6014 15.6003C14.889 16.313 14.0513 16.8772 13.0883 17.293C12.1252 17.7087 11.0962 17.9166 10.0014 17.9166ZM5.27742 14.7212L9.99992 9.99992V3.33325C8.13881 3.33325 6.56242 3.97909 5.27075 5.27075C3.97909 6.56242 3.33325 8.13881 3.33325 9.99992C3.33325 10.8888 3.50124 11.7417 3.83721 12.5585C4.17318 13.3753 4.65325 14.0962 5.27742 14.7212Z" fill="#1A73E8"/>
</g>
</g>
</svg>
