<svg width="21" height="20" viewBox="0 0 21 20" fill="none" xmlns="http://www.w3.org/2000/svg">
<mask id="mask0_1_18128" style="mask-type:alpha" maskUnits="userSpaceOnUse" x="0" y="0" width="21" height="20">
<rect x="0.0507812" width="20" height="20" fill="#D9D9D9"/>
</mask>
<g mask="url(#mask0_1_18128)">
<path d="M10.0362 17.0832C8.36102 17.0832 6.88456 16.5719 5.60678 15.5494C4.329 14.5271 3.51005 13.2189 3.14991 11.6248C3.10505 11.4593 3.13206 11.3071 3.23095 11.1682C3.3297 11.0293 3.46963 10.9486 3.65074 10.9261C3.82116 10.9037 3.97393 10.9374 4.10907 11.0271C4.24421 11.1169 4.33852 11.2488 4.39199 11.423C4.70921 12.7103 5.39268 13.7672 6.44241 14.5936C7.49213 15.42 8.69004 15.8332 10.0362 15.8332C11.6612 15.8332 13.0396 15.2672 14.1716 14.1353C15.3035 13.0033 15.8695 11.6248 15.8695 9.99984C15.8695 8.37484 15.3035 6.99637 14.1716 5.86442C13.0396 4.73248 11.6612 4.1665 10.0362 4.1665C9.12588 4.1665 8.27282 4.36873 7.47699 4.77317C6.68102 5.17748 5.9956 5.7338 5.42074 6.44213H6.97532C7.15241 6.44213 7.30081 6.50206 7.42053 6.62192C7.54039 6.74178 7.60032 6.89025 7.60032 7.06734C7.60032 7.24456 7.54039 7.39296 7.42053 7.51255C7.30081 7.63227 7.15241 7.69213 6.97532 7.69213H4.12282C3.90935 7.69213 3.73046 7.61991 3.58616 7.47546C3.44171 7.33116 3.36949 7.15227 3.36949 6.9388V4.0863C3.36949 3.90921 3.42942 3.76081 3.54928 3.64109C3.66914 3.52123 3.81768 3.4613 3.99491 3.4613C4.17199 3.4613 4.32039 3.52123 4.44011 3.64109C4.5597 3.76081 4.61949 3.90921 4.61949 4.0863V5.43567C5.29574 4.63761 6.1056 4.01824 7.04907 3.57755C7.99241 3.13685 8.9881 2.9165 10.0362 2.9165C11.0195 2.9165 11.9405 3.10241 12.7993 3.47421C13.658 3.84602 14.4069 4.35136 15.0457 4.99025C15.6846 5.62914 16.19 6.37789 16.5618 7.2365C16.9336 8.09525 17.1195 9.01623 17.1195 9.99942C17.1195 10.9826 16.9336 11.9037 16.5618 12.7625C16.19 13.6216 15.6846 14.3705 15.0457 15.0094C14.4069 15.6483 13.658 16.1537 12.7993 16.5255C11.9405 16.8973 11.0195 17.0832 10.0362 17.0832Z" fill="#E43232"/>
</g>
</svg>
