<svg width="17" height="20" viewBox="0 0 17 20" fill="none" xmlns="http://www.w3.org/2000/svg">
<path d="M7.99825 19.6923C7.50075 19.6923 7.07542 19.5153 6.72225 19.1613C6.36892 18.8073 6.19225 18.3817 6.19225 17.8845H9.80775C9.80775 18.3833 9.63058 18.8093 9.27625 19.1625C8.92192 19.5157 8.49592 19.6923 7.99825 19.6923ZM14.75 16.8845H1.25C1.0375 16.8845 0.859417 16.8127 0.71575 16.669C0.571917 16.5252 0.5 16.3469 0.5 16.1343C0.5 15.9218 0.571917 15.7437 0.71575 15.6C0.859417 15.4565 1.0375 15.3848 1.25 15.3848H2.30775V7.923C2.30775 6.57817 2.72283 5.38908 3.553 4.35575C4.383 3.32242 5.44867 2.6615 6.75 2.373V1.75C6.75 1.40283 6.87142 1.10767 7.11425 0.8645C7.35708 0.6215 7.65192 0.5 7.99875 0.5C8.34575 0.5 8.641 0.6215 8.8845 0.8645C9.12817 1.10767 9.25 1.40283 9.25 1.75V2.36925C9.43583 2.39875 9.61342 2.43917 9.78275 2.4905C9.95192 2.54167 10.1128 2.60892 10.2653 2.69225C10.4538 2.79358 10.5968 2.93783 10.6943 3.125C10.7916 3.31217 10.798 3.5035 10.7135 3.699C10.6288 3.8945 10.4945 4.032 10.3105 4.1115C10.1265 4.191 9.94158 4.19358 9.75575 4.11925C9.41475 3.96925 9.10992 3.867 8.84125 3.8125C8.57275 3.758 8.29233 3.73075 8 3.73075C6.84233 3.73075 5.85417 4.14008 5.0355 4.95875C4.217 5.77725 3.80775 6.76533 3.80775 7.923V15.3848H12.1923V12.5385C12.1923 12.2885 12.2702 12.101 12.4262 11.976C12.5821 11.851 12.7535 11.7885 12.9405 11.7885C13.1277 11.7885 13.2998 11.851 13.4568 11.976C13.6138 12.101 13.6923 12.2885 13.6923 12.5385V15.3848H14.75C14.9625 15.3848 15.1406 15.4566 15.2843 15.6003C15.4281 15.7441 15.5 15.9223 15.5 16.135C15.5 16.3475 15.4281 16.5256 15.2843 16.6693C15.1406 16.8128 14.9625 16.8845 14.75 16.8845ZM8.1155 9.98075V8.61925C8.1155 8.50159 8.13725 8.3875 8.18075 8.277C8.22442 8.16667 8.293 8.06475 8.3865 7.97125L13.5443 2.8385C13.6686 2.71417 13.8028 2.62667 13.947 2.576C14.0912 2.52533 14.2353 2.5 14.3795 2.5C14.5367 2.5 14.6887 2.5295 14.8357 2.5885C14.9827 2.6475 15.1163 2.736 15.2365 2.854L16.1615 3.7885C16.2692 3.91283 16.3525 4.04742 16.4115 4.19225C16.4705 4.33725 16.5 4.48217 16.5 4.627C16.5 4.77183 16.4731 4.91925 16.4193 5.06925C16.3654 5.21925 16.2795 5.35642 16.1615 5.48075L11.0288 10.6135C10.9353 10.707 10.8333 10.7756 10.723 10.8193C10.6125 10.8628 10.4984 10.8845 10.3807 10.8845H9.01925C8.76308 10.8845 8.54842 10.7979 8.37525 10.6248C8.20208 10.4516 8.1155 10.2369 8.1155 9.98075ZM9.30775 9.69225H10.2578L13.5038 6.43075L13.0443 5.95575L12.5788 5.4865L9.30775 8.74225V9.69225ZM13.0443 5.95575L12.5788 5.4865L13.5038 6.43075L13.0443 5.95575Z" fill="#272727"/>
</svg>
