<svg width="24" height="24" viewBox="0 0 24 24" fill="none" xmlns="http://www.w3.org/2000/svg">
<mask id="mask0_1_12866" style="mask-type:alpha" maskUnits="userSpaceOnUse" x="0" y="0" width="24" height="24">
<rect width="24" height="24" fill="#D9D9D9"/>
</mask>
<g mask="url(#mask0_1_12866)">
<path d="M11.2828 14.7497H12.7172C12.8529 14.7497 12.9705 14.6932 13.07 14.5802C13.1695 14.4672 13.2026 14.3429 13.1693 14.2074L12.6943 11.5919C13.0083 11.4573 13.2611 11.2456 13.4528 10.9569C13.6444 10.6683 13.7402 10.3492 13.7402 9.9997C13.7402 9.52103 13.5698 9.11128 13.2288 8.77045C12.8878 8.42978 12.4778 8.25945 11.999 8.25945C11.5202 8.25945 11.1106 8.42978 10.7702 8.77045C10.4299 9.11128 10.2598 9.52103 10.2598 9.9997C10.2598 10.3492 10.3556 10.6683 10.5473 10.9569C10.7389 11.2456 10.9918 11.4573 11.3058 11.5919L10.8308 14.2074C10.7974 14.3429 10.8305 14.4672 10.93 14.5802C11.0295 14.6932 11.1471 14.7497 11.2828 14.7497ZM12 21.3707C11.8962 21.3707 11.7942 21.3624 11.6942 21.3457C11.5942 21.329 11.4974 21.304 11.4037 21.2707C9.29492 20.5207 7.61708 19.1909 6.37025 17.2814C5.12342 15.3718 4.5 13.3112 4.5 11.0997V6.59594C4.5 6.21611 4.60925 5.8742 4.82775 5.5702C5.04608 5.26636 5.3285 5.04611 5.675 4.90945L11.3672 2.78445C11.5814 2.70745 11.7923 2.66895 12 2.66895C12.2077 2.66895 12.4186 2.70745 12.6328 2.78445L18.325 4.90945C18.6715 5.04611 18.9539 5.26636 19.1723 5.5702C19.3908 5.8742 19.5 6.21611 19.5 6.59594V11.0997C19.5 13.3112 18.8766 15.3718 17.6298 17.2814C16.3829 19.1909 14.7051 20.5207 12.5963 21.2707C12.5026 21.304 12.4058 21.329 12.3058 21.3457C12.2058 21.3624 12.1038 21.3707 12 21.3707ZM12 19.8997C13.7333 19.3497 15.1667 18.2497 16.3 16.5997C17.4333 14.9497 18 13.1164 18 11.0997V6.5862C18 6.5222 17.9823 6.46453 17.947 6.41319C17.9118 6.36186 17.8622 6.32336 17.798 6.29769L12.1058 4.17269C12.0738 4.15986 12.0385 4.15345 12 4.15345C11.9615 4.15345 11.9262 4.15986 11.8942 4.17269L6.202 6.29769C6.13783 6.32336 6.08817 6.36186 6.053 6.41319C6.01767 6.46453 6 6.5222 6 6.5862V11.0997C6 13.1164 6.56667 14.9497 7.7 16.5997C8.83333 18.2497 10.2667 19.3497 12 19.8997Z" fill="#272727"/>
</g>
</svg>
