<svg width="16" height="20" viewBox="0 0 16 20" fill="none" xmlns="http://www.w3.org/2000/svg">
<path d="M7.28275 12.7497H8.71725C8.85292 12.7497 8.9705 12.6932 9.07 12.5802C9.1695 12.4672 9.20258 12.3429 9.16925 12.2074L8.69425 9.59195C9.00825 9.45728 9.26108 9.24561 9.45275 8.95695C9.64442 8.66828 9.74025 8.3492 9.74025 7.9997C9.74025 7.52103 9.56975 7.11128 9.22875 6.77045C8.88775 6.42978 8.47783 6.25945 7.999 6.25945C7.52017 6.25945 7.11058 6.42978 6.77025 6.77045C6.42992 7.11128 6.25975 7.52103 6.25975 7.9997C6.25975 8.3492 6.35558 8.66828 6.54725 8.95695C6.73892 9.24561 6.99175 9.45728 7.30575 9.59195L6.83075 12.2074C6.79742 12.3429 6.8305 12.4672 6.93 12.5802C7.0295 12.6932 7.14708 12.7497 7.28275 12.7497ZM8 19.3707C7.89617 19.3707 7.79425 19.3624 7.69425 19.3457C7.59425 19.329 7.49742 19.304 7.40375 19.2707C5.29492 18.5207 3.61708 17.1909 2.37025 15.2814C1.12342 13.3718 0.5 11.3112 0.5 9.0997V4.59594C0.5 4.21611 0.60925 3.8742 0.82775 3.5702C1.04608 3.26636 1.3285 3.04611 1.675 2.90945L7.36725 0.784445C7.58142 0.707445 7.79233 0.668945 8 0.668945C8.20767 0.668945 8.41858 0.707445 8.63275 0.784445L14.325 2.90945C14.6715 3.04611 14.9539 3.26636 15.1723 3.5702C15.3908 3.8742 15.5 4.21611 15.5 4.59594V9.0997C15.5 11.3112 14.8766 13.3718 13.6298 15.2814C12.3829 17.1909 10.7051 18.5207 8.59625 19.2707C8.50258 19.304 8.40575 19.329 8.30575 19.3457C8.20575 19.3624 8.10383 19.3707 8 19.3707Z" fill="#165DC9"/>
</svg>
