<svg width="16" height="17" viewBox="0 0 16 17" fill="none" xmlns="http://www.w3.org/2000/svg">
<path d="M0.5 14.9999V6.15374C0.5 5.86752 0.564025 5.59638 0.692075 5.34029C0.820125 5.08421 0.997125 4.87332 1.22307 4.70762L6.91537 0.419167C7.23126 0.178133 7.59227 0.0576172 7.99842 0.0576172C8.40457 0.0576172 8.76662 0.178133 9.08457 0.419167L14.7769 4.70762C15.0028 4.87332 15.1798 5.08421 15.3079 5.34029C15.4359 5.59638 15.5 5.86752 15.5 6.15374V14.9999C15.5 15.4089 15.3522 15.7611 15.0567 16.0566C14.7612 16.3521 14.4089 16.4999 14 16.4999H10.8077C10.5516 16.4999 10.3369 16.4132 10.1637 16.24C9.99044 16.0668 9.90382 15.8521 9.90382 15.596V10.7114C9.90382 10.4553 9.8172 10.2406 9.64395 10.0674C9.47072 9.89418 9.25606 9.80757 8.99998 9.80757H6.99997C6.74389 9.80757 6.52923 9.89418 6.356 10.0674C6.18275 10.2406 6.09613 10.4553 6.09613 10.7114V15.596C6.09613 15.8521 6.00951 16.0668 5.83627 16.24C5.66304 16.4132 5.44838 16.4999 5.1923 16.4999H1.99997C1.59101 16.4999 1.23877 16.3521 0.943275 16.0566C0.647758 15.7611 0.5 15.4089 0.5 14.9999Z" fill="#00183D"/>
</svg>
