<svg width="16" height="17" viewBox="0 0 16 17" fill="none" xmlns="http://www.w3.org/2000/svg">
<path d="M1.99997 14.9423H5.34615V9.9038C5.34615 9.64772 5.43277 9.43306 5.606 9.25982C5.77923 9.08659 5.9939 8.99998 6.25 8.99998H9.74995C10.0061 8.99998 10.2207 9.08659 10.3939 9.25982C10.5672 9.43306 10.6538 9.64772 10.6538 9.9038V14.9423H14V6.09612C14 6.04484 13.9888 5.99837 13.9663 5.9567C13.9439 5.91503 13.9134 5.87817 13.875 5.84612L8.18268 1.56727C8.13139 1.52241 8.07049 1.49997 7.99997 1.49997C7.92946 1.49997 7.86856 1.52241 7.81727 1.56727L2.12497 5.84612C2.08652 5.87817 2.05607 5.91503 2.03362 5.9567C2.01119 5.99837 1.99997 6.04484 1.99997 6.09612V14.9423ZM0.5 14.9423V6.09612C0.5 5.80991 0.564025 5.53876 0.692075 5.28268C0.820125 5.02659 0.997125 4.8157 1.22307 4.65L6.91537 0.361549C7.23126 0.120516 7.59227 0 7.99842 0C8.40457 0 8.76662 0.120516 9.08457 0.361549L14.7769 4.65C15.0028 4.8157 15.1798 5.02659 15.3079 5.28268C15.4359 5.53876 15.5 5.80991 15.5 6.09612V14.9423C15.5 15.3512 15.3522 15.7035 15.0567 15.999C14.7612 16.2945 14.4089 16.4422 14 16.4422H10.0577C9.80159 16.4422 9.58692 16.3556 9.41367 16.1824C9.24044 16.0091 9.15382 15.7945 9.15382 15.5384V10.4999H6.84613V15.5384C6.84613 15.7945 6.75951 16.0091 6.58627 16.1824C6.41302 16.3556 6.19836 16.4422 5.94227 16.4422H1.99997C1.59101 16.4422 1.23877 16.2945 0.943275 15.999C0.647758 15.7035 0.5 15.3512 0.5 14.9423Z" fill="#272727"/>
</svg>
