<svg width="427" height="403" viewBox="0 0 427 403" fill="none" xmlns="http://www.w3.org/2000/svg">
<g clip-path="url(#clip0_4_14114)">
<path fill-rule="evenodd" clip-rule="evenodd" d="M348.525 78.9589C417.786 96.8235 489.463 157.44 511.864 250.48C521.039 288.59 526.39 346.703 498.971 399.691C468.913 457.78 428.206 480.247 351.079 488.783C273.865 497.328 198.477 481.782 120.937 426.75C58.4124 382.374 10.515 324.48 32.5849 245.243C49.5234 184.43 95.4975 142.85 155.933 111.042C212.872 81.0738 280.027 61.2911 348.525 78.9589Z" stroke="#E3E3E7" stroke-width="1.10109"/>
<path fill-rule="evenodd" clip-rule="evenodd" d="M346.181 94.3263C410.504 110.844 457.639 159.369 484.688 215.535C512.108 272.472 516.804 335.792 489.373 391.66C459.301 452.905 407.711 508.942 335.151 520.088C262.509 531.246 187.987 499.726 132.867 453.495C79.1683 408.456 39.251 342.17 44.6471 276.434C49.8732 212.769 106.96 168.183 164.639 133.348C218.982 100.528 282.565 77.9901 346.181 94.3263Z" fill="#BDBDFF"/>
</g>
<defs>
<clipPath id="clip0_4_14114">
<rect width="427" height="403" rx="30" fill="white"/>
</clipPath>
</defs>
</svg>
