<svg width="20" height="20" viewBox="0 0 20 20" fill="none" xmlns="http://www.w3.org/2000/svg">
<mask id="mask0_3_8629" style="mask-type:alpha" maskUnits="userSpaceOnUse" x="0" y="0" width="20" height="20">
<rect width="20" height="20" fill="#D9D9D9"/>
</mask>
<g mask="url(#mask0_3_8629)">
<path d="M9.99984 14.1667C10.2359 14.1667 10.4339 14.0868 10.5936 13.9271C10.7533 13.7674 10.8332 13.5695 10.8332 13.3334V10C10.8332 9.76391 10.7533 9.56599 10.5936 9.40627C10.4339 9.24655 10.2359 9.16669 9.99984 9.16669C9.76373 9.16669 9.56581 9.24655 9.40609 9.40627C9.24637 9.56599 9.1665 9.76391 9.1665 10V13.3334C9.1665 13.5695 9.24637 13.7674 9.40609 13.9271C9.56581 14.0868 9.76373 14.1667 9.99984 14.1667ZM9.99984 7.50002C10.2359 7.50002 10.4339 7.42016 10.5936 7.26044C10.7533 7.10071 10.8332 6.9028 10.8332 6.66669C10.8332 6.43058 10.7533 6.23266 10.5936 6.07294C10.4339 5.91321 10.2359 5.83335 9.99984 5.83335C9.76373 5.83335 9.56581 5.91321 9.40609 6.07294C9.24637 6.23266 9.1665 6.43058 9.1665 6.66669C9.1665 6.9028 9.24637 7.10071 9.40609 7.26044C9.56581 7.42016 9.76373 7.50002 9.99984 7.50002ZM9.99984 18.3334C8.84706 18.3334 7.76373 18.1146 6.74984 17.6771C5.73595 17.2396 4.854 16.6459 4.104 15.8959C3.354 15.1459 2.76025 14.2639 2.32275 13.25C1.88525 12.2361 1.6665 11.1528 1.6665 10C1.6665 8.84724 1.88525 7.76391 2.32275 6.75002C2.76025 5.73613 3.354 4.85419 4.104 4.10419C4.854 3.35419 5.73595 2.76044 6.74984 2.32294C7.76373 1.88544 8.84706 1.66669 9.99984 1.66669C11.1526 1.66669 12.2359 1.88544 13.2498 2.32294C14.2637 2.76044 15.1457 3.35419 15.8957 4.10419C16.6457 4.85419 17.2394 5.73613 17.6769 6.75002C18.1144 7.76391 18.3332 8.84724 18.3332 10C18.3332 11.1528 18.1144 12.2361 17.6769 13.25C17.2394 14.2639 16.6457 15.1459 15.8957 15.8959C15.1457 16.6459 14.2637 17.2396 13.2498 17.6771C12.2359 18.1146 11.1526 18.3334 9.99984 18.3334ZM9.99984 16.6667C11.8609 16.6667 13.4373 16.0209 14.729 14.7292C16.0207 13.4375 16.6665 11.8611 16.6665 10C16.6665 8.13891 16.0207 6.56252 14.729 5.27085C13.4373 3.97919 11.8609 3.33335 9.99984 3.33335C8.13873 3.33335 6.56234 3.97919 5.27067 5.27085C3.979 6.56252 3.33317 8.13891 3.33317 10C3.33317 11.8611 3.979 13.4375 5.27067 14.7292C6.56234 16.0209 8.13873 16.6667 9.99984 16.6667Z" fill="#272727"/>
</g>
</svg>
