<svg width="19" height="17" viewBox="0 0 19 17" fill="none" xmlns="http://www.w3.org/2000/svg">
<path d="M8 7.69238C7.0375 7.69238 6.21358 7.34972 5.52825 6.66438C4.84275 5.97888 4.5 5.15488 4.5 4.19238C4.5 3.22988 4.84275 2.40597 5.52825 1.72063C6.21358 1.03513 7.0375 0.692383 8 0.692383C8.9625 0.692383 9.78642 1.03513 10.4718 1.72063C11.1573 2.40597 11.5 3.22988 11.5 4.19238C11.5 5.15488 11.1573 5.97888 10.4718 6.66438C9.78642 7.34972 8.9625 7.69238 8 7.69238ZM0.5 13.7886V13.0846C0.5 12.5796 0.6305 12.1223 0.8915 11.7126C1.15233 11.303 1.51033 10.9828 1.9655 10.7521C2.868 10.2945 3.80333 9.9393 4.7715 9.68663C5.73967 9.43413 6.73125 9.30788 7.74625 9.30788H7.8905C8.103 9.30788 8.28108 9.38263 8.42475 9.53213C8.56842 9.6818 8.64025 9.86263 8.64025 10.0746C8.64025 10.2865 8.56842 10.4642 8.42475 10.6079C8.28108 10.7514 8.103 10.8231 7.8905 10.8231H7.74625C6.84408 10.8231 5.97017 10.9318 5.1245 11.1491C4.27867 11.3665 3.45508 11.6835 2.65375 12.1001C2.46158 12.2026 2.30458 12.3385 2.18275 12.5079C2.06092 12.677 2 12.8693 2 13.0846V13.8079H7.8905C8.103 13.8079 8.28108 13.8798 8.42475 14.0236C8.56842 14.1673 8.64025 14.3455 8.64025 14.5581C8.64025 14.7708 8.56842 14.9489 8.42475 15.0924C8.28108 15.236 8.103 15.3079 7.8905 15.3079H2.01925C1.59742 15.3079 1.23875 15.1601 0.94325 14.8646C0.64775 14.569 0.5 14.2103 0.5 13.7886ZM14.0038 15.4694L13.8828 14.7211C13.6443 14.6506 13.4198 14.5584 13.2095 14.4444C12.9993 14.3302 12.7993 14.1872 12.6095 14.0154L11.8655 14.2886C11.7065 14.3425 11.5528 14.3391 11.4045 14.2786C11.2563 14.2181 11.1407 14.1215 11.0577 13.9886L10.925 13.7539C10.8403 13.6115 10.81 13.4565 10.834 13.2886C10.858 13.1208 10.9358 12.983 11.0673 12.8751L11.6655 12.4001C11.5937 12.1411 11.5577 11.886 11.5577 11.6346C11.5577 11.3835 11.5937 11.1284 11.6655 10.8694L11.077 10.3751C10.945 10.27 10.8655 10.137 10.8385 9.97613C10.8115 9.81513 10.8403 9.66355 10.925 9.52138L11.073 9.27138C11.1578 9.13838 11.273 9.04163 11.4185 8.98113C11.5638 8.9208 11.716 8.91755 11.875 8.97138L12.6095 9.24438C12.7928 9.07255 12.9913 8.93122 13.2048 8.82038C13.4183 8.70938 13.6443 8.61863 13.8828 8.54813L14.0038 7.78463C14.0346 7.61547 14.1135 7.4793 14.2405 7.37613C14.3673 7.27297 14.5153 7.22138 14.6845 7.22138H14.95C15.1192 7.22138 15.2673 7.27555 15.3943 7.38388C15.5211 7.49222 15.5999 7.63097 15.6307 7.80013L15.7423 8.54813C15.9808 8.61863 16.2067 8.71197 16.4202 8.82813C16.6336 8.94413 16.8319 9.09313 17.0152 9.27513L17.7193 9.00213C17.8884 8.93797 18.0493 8.9363 18.202 8.99713C18.3545 9.05813 18.4728 9.15822 18.5568 9.29738L18.7008 9.54113C18.7847 9.68047 18.8133 9.83313 18.7865 9.99913C18.7595 10.1651 18.68 10.3007 18.548 10.4059L17.9595 10.9001C18.0313 11.1406 18.0673 11.3911 18.0673 11.6516C18.0673 11.9121 18.0313 12.1616 17.9595 12.4001L18.5578 12.8751C18.6898 12.9803 18.7676 13.1149 18.7913 13.2789C18.8149 13.443 18.7845 13.5963 18.7 13.7386L18.5518 13.9886C18.4684 14.1215 18.3553 14.2181 18.2125 14.2786C18.0695 14.3391 17.9185 14.3425 17.7595 14.2886L17.0152 14.0154C16.8256 14.1872 16.6256 14.3302 16.4152 14.4444C16.2051 14.5584 15.9808 14.6506 15.7423 14.7211L15.6307 15.4846C15.5999 15.654 15.5211 15.7902 15.3943 15.8934C15.2673 15.9965 15.1192 16.0481 14.95 16.0481H14.6845C14.5153 16.0481 14.3673 15.994 14.2405 15.8856C14.1135 15.7773 14.0346 15.6385 14.0038 15.4694ZM14.8085 13.5386C15.3323 13.5386 15.7804 13.3521 16.1528 12.9791C16.5252 12.6061 16.7115 12.1577 16.7115 11.6339C16.7115 11.1101 16.525 10.662 16.152 10.2896C15.779 9.91713 15.3306 9.73088 14.8068 9.73088C14.2831 9.73088 13.835 9.91738 13.4625 10.2904C13.09 10.6634 12.9038 11.1118 12.9038 11.6356C12.9038 12.1593 13.0903 12.6074 13.4633 12.9799C13.8363 13.3524 14.2847 13.5386 14.8085 13.5386ZM8 6.19238C8.55 6.19238 9.02083 5.99655 9.4125 5.60488C9.80417 5.21322 10 4.74238 10 4.19238C10 3.64238 9.80417 3.17155 9.4125 2.77988C9.02083 2.38822 8.55 2.19238 8 2.19238C7.45 2.19238 6.97917 2.38822 6.5875 2.77988C6.19583 3.17155 6 3.64238 6 4.19238C6 4.74238 6.19583 5.21322 6.5875 5.60488C6.97917 5.99655 7.45 6.19238 8 6.19238Z" fill="#272727"/>
</svg>
