<svg width="24" height="42" viewBox="0 0 24 42" fill="none" xmlns="http://www.w3.org/2000/svg">
<mask id="mask0_1_18195" style="mask-type:alpha" maskUnits="userSpaceOnUse" x="0" y="0" width="24" height="42">
<rect width="24" height="42" fill="#D9D9D9"/>
</mask>
<g mask="url(#mask0_1_18195)">
<path d="M6.35222 26.8907L4.45568 28.7445C4.18605 29.0081 3.87603 29.0677 3.52563 28.9235C3.17521 28.7792 3 28.5195 3 28.1444V14.674C3 14.2062 3.16579 13.8103 3.49737 13.4862C3.82895 13.1621 4.23401 13 4.71256 13H19.2874C19.766 13 20.1711 13.1621 20.5026 13.4862C20.8342 13.8103 21 14.2062 21 14.674V25.2166C21 25.6844 20.8342 26.0804 20.5026 26.4045C20.1711 26.7286 19.766 26.8907 19.2874 26.8907H6.35222ZM5.74738 25.5016H19.2874C19.3603 25.5016 19.4271 25.4719 19.4879 25.4126C19.5486 25.3532 19.579 25.2879 19.579 25.2166V14.674C19.579 14.6028 19.5486 14.5375 19.4879 14.4781C19.4271 14.4187 19.3603 14.389 19.2874 14.389H4.71256C4.63968 14.389 4.57286 14.4187 4.51212 14.4781C4.4514 14.5375 4.42103 14.6028 4.42103 14.674V26.7838L5.74738 25.5016ZM7.26315 23.418H12.9474C13.149 23.418 13.3178 23.3515 13.4538 23.2185C13.5899 23.0856 13.6579 22.9205 13.6579 22.7235C13.6579 22.5264 13.5899 22.3614 13.4538 22.2284C13.3178 22.0954 13.149 22.029 12.9474 22.029H7.26315C7.06153 22.029 6.89271 22.0954 6.75668 22.2284C6.62065 22.3614 6.55264 22.5264 6.55264 22.7235C6.55264 22.9205 6.62065 23.0856 6.75668 23.2185C6.89271 23.3515 7.06153 23.418 7.26315 23.418ZM7.26315 20.6398H16.7369C16.9385 20.6398 17.1073 20.5734 17.2433 20.4404C17.3793 20.3074 17.4474 20.1424 17.4474 19.9453C17.4474 19.7482 17.3793 19.5832 17.2433 19.4503C17.1073 19.3173 16.9385 19.2508 16.7369 19.2508H7.26315C7.06153 19.2508 6.89271 19.3173 6.75668 19.4503C6.62065 19.5832 6.55264 19.7482 6.55264 19.9453C6.55264 20.1424 6.62065 20.3074 6.75668 20.4404C6.89271 20.5734 7.06153 20.6398 7.26315 20.6398ZM7.26315 17.8617H16.7369C16.9385 17.8617 17.1073 17.7952 17.2433 17.6623C17.3793 17.5293 17.4474 17.3643 17.4474 17.1672C17.4474 16.9701 17.3793 16.8051 17.2433 16.6721C17.1073 16.5392 16.9385 16.4727 16.7369 16.4727H7.26315C7.06153 16.4727 6.89271 16.5392 6.75668 16.6721C6.62065 16.8051 6.55264 16.9701 6.55264 17.1672C6.55264 17.3643 6.62065 17.5293 6.75668 17.6623C6.89271 17.7952 7.06153 17.8617 7.26315 17.8617Z" fill="#272727"/>
</g>
</svg>
