<svg width="20" height="17" viewBox="0 0 20 17" fill="none" xmlns="http://www.w3.org/2000/svg">
<path d="M2.50035 14.6922V4.59998L0.950354 1.22115C0.865754 1.03525 0.860629 0.843588 0.934979 0.646155C1.00935 0.448721 1.13947 0.307696 1.32535 0.223079C1.51125 0.138479 1.70292 0.130788 1.90035 0.200005C2.09777 0.269238 2.23879 0.396804 2.3234 0.582704L4.14263 4.54998H15.858L17.6773 0.582704C17.7619 0.396804 17.9029 0.266679 18.1003 0.192329C18.2977 0.117963 18.4894 0.128212 18.6753 0.223079C18.8612 0.307696 18.9913 0.448721 19.0657 0.646155C19.14 0.843588 19.1349 1.03525 19.0503 1.22115L17.5003 4.59998V14.6922C17.5003 15.1909 17.3237 15.6169 16.9705 15.9701C16.6173 16.3233 16.1913 16.4999 15.6926 16.4999H4.30805C3.80934 16.4999 3.38338 16.3233 3.03018 15.9701C2.67696 15.6169 2.50035 15.1909 2.50035 14.6922ZM8.00033 9.74993H12.0003C12.2131 9.74993 12.3913 9.67814 12.5349 9.53455C12.6785 9.39097 12.7503 9.21277 12.7503 8.99995C12.7503 8.78714 12.6785 8.60894 12.5349 8.46535C12.3913 8.32177 12.2131 8.24998 12.0003 8.24998H8.00033C7.78751 8.24998 7.60931 8.32177 7.46573 8.46535C7.32215 8.60894 7.25035 8.78714 7.25035 8.99995C7.25035 9.21277 7.32215 9.39097 7.46573 9.53455C7.60931 9.67814 7.78751 9.74993 8.00033 9.74993ZM4.30805 15H15.6926C15.7824 15 15.8561 14.9711 15.9138 14.9134C15.9715 14.8557 16.0003 14.782 16.0003 14.6922V6.04995H4.00033V14.6922C4.00033 14.782 4.02918 14.8557 4.08688 14.9134C4.14458 14.9711 4.2183 15 4.30805 15Z" fill="#272727"/>
</svg>
