<svg width="20" height="17" viewBox="0 0 20 17" fill="none" xmlns="http://www.w3.org/2000/svg">
<path d="M2.50035 14.6922V4.59997L0.950354 1.22115C0.865754 1.03525 0.860629 0.843583 0.934979 0.646149C1.00935 0.448716 1.13947 0.30769 1.32535 0.223073C1.51125 0.138473 1.70292 0.130782 1.90035 0.199999C2.09777 0.269232 2.23879 0.396799 2.3234 0.582699L4.14263 4.54997H15.858L17.6773 0.582699C17.7619 0.396799 17.9029 0.266674 18.1003 0.192324C18.2977 0.117957 18.4894 0.12864 18.6753 0.224373C18.8612 0.308123 18.9913 0.448716 19.0657 0.646149C19.14 0.843583 19.1349 1.03525 19.0503 1.22115L17.5003 4.59997V14.6922C17.5003 15.1893 17.3233 15.6149 16.9693 15.9689C16.6153 16.3229 16.1897 16.4999 15.6926 16.4999H4.30805C3.81094 16.4999 3.38538 16.3229 3.03138 15.9689C2.67736 15.6149 2.50035 15.1893 2.50035 14.6922ZM8.00033 9.74992H12.0003C12.2128 9.74992 12.391 9.67802 12.5347 9.53422C12.6784 9.39041 12.7503 9.21221 12.7503 8.99962C12.7503 8.78702 12.6784 8.60893 12.5347 8.46535C12.391 8.32177 12.2128 8.24997 12.0003 8.24997H8.00033C7.78783 8.24997 7.60971 8.32187 7.46598 8.46567C7.32223 8.60949 7.25035 8.78769 7.25035 9.00027C7.25035 9.21287 7.32223 9.39097 7.46598 9.53455C7.60971 9.67813 7.78783 9.74992 8.00033 9.74992Z" fill="#00183D"/>
</svg>
