<svg width="16" height="15" viewBox="0 0 16 15" fill="none" xmlns="http://www.w3.org/2000/svg">
<path d="M2.18303 12.2499C1.83151 12.2499 1.53262 12.1268 1.28637 11.8806C1.04012 11.6343 0.916992 11.3354 0.916992 10.9839V10.3974C0.916992 9.98924 1.02783 9.61125 1.24949 9.26347C1.47116 8.91583 1.76741 8.64854 2.13824 8.4616C2.96185 8.05771 3.79276 7.75479 4.63095 7.55285C5.46914 7.3509 6.31449 7.24993 7.16699 7.24993C7.3881 7.24993 7.60789 7.25743 7.82637 7.27243C8.04498 7.28743 8.26484 7.31146 8.48595 7.34451C8.62262 7.36368 8.73081 7.41736 8.81053 7.50556C8.89012 7.59375 8.93255 7.70618 8.93783 7.84285C8.98158 8.4316 9.13998 8.98875 9.41303 9.51431C9.68595 10.04 10.0468 10.4882 10.4955 10.8589C10.5554 10.9017 10.6024 10.9551 10.6366 11.0191C10.6707 11.0833 10.6878 11.1538 10.6878 11.2308V11.5126C10.6878 11.7168 10.616 11.8907 10.4722 12.0343C10.3286 12.1781 10.1548 12.2499 9.95074 12.2499H2.18303ZM7.16699 5.90368C6.36255 5.90368 5.67533 5.61875 5.10533 5.04889C4.53533 4.47889 4.25033 3.79167 4.25033 2.98722C4.25033 2.18264 4.53533 1.49542 5.10533 0.925556C5.67533 0.355556 6.36255 0.0705566 7.16699 0.0705566C7.97144 0.0705566 8.65866 0.355556 9.22866 0.925556C9.79866 1.49542 10.0837 2.18264 10.0837 2.98722C10.0837 3.79167 9.79866 4.47889 9.22866 5.04889C8.65866 5.61875 7.97144 5.90368 7.16699 5.90368ZM13.3368 7.85097C13.541 7.85097 13.7148 7.77778 13.8584 7.63139C14.0022 7.485 14.0741 7.30979 14.0741 7.10576C14.0741 6.90174 14.0022 6.72785 13.8584 6.5841C13.7148 6.44035 13.541 6.36847 13.3368 6.36847C13.1328 6.36847 12.9575 6.44035 12.8112 6.5841C12.6648 6.72785 12.5916 6.90174 12.5916 7.10576C12.5916 7.30979 12.6648 7.485 12.8112 7.63139C12.9575 7.77778 13.1328 7.85097 13.3368 7.85097ZM13.4378 14.2339L12.7087 13.4966C12.6862 13.4742 12.6471 13.3877 12.5916 13.237V9.95347C12.05 9.79431 11.6075 9.48931 11.2639 9.03847C10.9204 8.58764 10.7487 8.06889 10.7487 7.48222C10.7487 6.7675 11.0014 6.1575 11.5068 5.65222C12.0121 5.14694 12.6221 4.89431 13.3368 4.89431C14.0515 4.89431 14.6603 5.14694 15.163 5.65222C15.6657 6.1575 15.917 6.7675 15.917 7.48222C15.917 8.03778 15.7613 8.52924 15.4499 8.9566C15.1384 9.38396 14.7412 9.69111 14.2582 9.87806L14.9122 10.532C14.9901 10.6099 15.0291 10.6991 15.0291 10.7995C15.0291 10.8999 14.9901 10.9892 14.9122 11.0672L14.3337 11.6458C14.2556 11.7237 14.2166 11.8115 14.2166 11.9093C14.2166 12.0071 14.2556 12.095 14.3337 12.1731L14.9201 12.7516C14.9982 12.8295 15.0372 12.9174 15.0372 13.0151C15.0372 13.1129 14.9982 13.2008 14.9201 13.2787L13.9651 14.2339C13.8871 14.3118 13.7991 14.3508 13.7014 14.3508C13.6036 14.3508 13.5157 14.3118 13.4378 14.2339Z" fill="#CE8800"/>
</svg>
