<svg width="24" height="25" viewBox="0 0 24 25" fill="none" xmlns="http://www.w3.org/2000/svg">
<mask id="mask0_1_13039" style="mask-type:alpha" maskUnits="userSpaceOnUse" x="0" y="0" width="24" height="25">
<rect y="0.5" width="24" height="24" fill="#D9D9D9"/>
</mask>
<g mask="url(#mask0_1_13039)">
<path d="M12.198 17.077C13.3312 17.077 14.2936 16.6804 15.0853 15.8872C15.8769 15.0941 16.2728 14.1309 16.2728 12.9978C16.2728 11.8646 15.8762 10.9022 15.083 10.1105C14.2898 9.31883 13.3267 8.923 12.1935 8.923C11.0603 8.923 10.0979 9.31958 9.30626 10.1128C8.51459 10.9059 8.11876 11.8691 8.11876 13.0023C8.11876 14.1354 8.51534 15.0978 9.30851 15.8895C10.1017 16.6812 11.0648 17.077 12.198 17.077ZM12.1958 15.7C11.4458 15.7 10.8083 15.4375 10.2833 14.9125C9.75826 14.3875 9.49576 13.75 9.49576 13C9.49576 12.25 9.75826 11.6125 10.2833 11.0875C10.8083 10.5625 11.4458 10.3 12.1958 10.3C12.9458 10.3 13.5833 10.5625 14.1083 11.0875C14.6333 11.6125 14.8958 12.25 14.8958 13C14.8958 13.75 14.6333 14.3875 14.1083 14.9125C13.5833 15.4375 12.9458 15.7 12.1958 15.7ZM12.1958 20C10.0906 20 8.16526 19.4384 6.41976 18.3152C4.67426 17.1922 3.28101 15.7148 2.24001 13.8828C2.15667 13.7391 2.09576 13.5943 2.05726 13.4485C2.01892 13.3027 1.99976 13.153 1.99976 12.9995C1.99976 12.846 2.01892 12.6965 2.05726 12.551C2.09576 12.4055 2.15667 12.2609 2.24001 12.1172C3.28101 10.2852 4.67426 8.80775 6.41976 7.68475C8.16526 6.56158 10.0906 6 12.1958 6C14.3009 6 16.2263 6.56158 17.9718 7.68475C19.7173 8.80775 21.1105 10.2852 22.1515 12.1172C22.2348 12.2609 22.2958 12.4057 22.3343 12.5515C22.3726 12.6973 22.3918 12.847 22.3918 13.0005C22.3918 13.154 22.3726 13.3035 22.3343 13.449C22.2958 13.5945 22.2348 13.7391 22.1515 13.8828C21.1105 15.7148 19.7173 17.1922 17.9718 18.3152C16.2263 19.4384 14.3009 20 12.1958 20ZM12.1958 18.5C14.0791 18.5 15.8083 18.0042 17.3833 17.0125C18.9583 16.0208 20.1624 14.6833 20.9958 13C20.1624 11.3167 18.9583 9.97917 17.3833 8.9875C15.8083 7.99583 14.0791 7.5 12.1958 7.5C10.3124 7.5 8.58326 7.99583 7.00826 8.9875C5.43326 9.97917 4.22909 11.3167 3.39576 13C4.22909 14.6833 5.43326 16.0208 7.00826 17.0125C8.58326 18.0042 10.3124 18.5 12.1958 18.5Z" fill="#0D0D0D"/>
</g>
</svg>
